<mxfile host="Electron" modified="2024-05-07T18:54:42.704Z" agent="Mozilla/5.0 (Windows NT 10.0; Win64; x64) AppleWebKit/537.36 (KHTML, like Gecko) draw.io/24.2.5 Chrome/120.0.6099.109 Electron/28.1.0 Safari/537.36" etag="IoBrje8pO3kkQ_mt6iPK" version="24.2.5" type="device">
  <diagram name="Pagina-1" id="xlJhvgW3dntGbL7X99_p">
    <mxGraphModel dx="250" dy="621" grid="1" gridSize="10" guides="1" tooltips="1" connect="1" arrows="1" fold="1" page="0" pageScale="1" pageWidth="827" pageHeight="1169" math="0" shadow="0">
      <root>
        <mxCell id="0" />
        <mxCell id="1" parent="0" />
        <mxCell id="88VnwZzMv4nlZKu8oqsL-2" style="edgeStyle=orthogonalEdgeStyle;rounded=0;orthogonalLoop=1;jettySize=auto;html=1;exitX=0;exitY=0.5;exitDx=0;exitDy=0;endArrow=oval;endFill=0;" parent="1" edge="1">
          <mxGeometry relative="1" as="geometry">
            <mxPoint x="945.3299999999999" y="490.3" as="targetPoint" />
            <mxPoint x="965.3299999999999" y="487.41500000000013" as="sourcePoint" />
            <Array as="points">
              <mxPoint x="965.3299999999999" y="490.3" />
            </Array>
          </mxGeometry>
        </mxCell>
        <mxCell id="88VnwZzMv4nlZKu8oqsL-4" value="Visore VR" style="whiteSpace=wrap;html=1;align=center;" parent="1" vertex="1">
          <mxGeometry x="1116.6999999999998" y="464.19" width="77.5" height="20" as="geometry" />
        </mxCell>
        <mxCell id="88VnwZzMv4nlZKu8oqsL-5" style="edgeStyle=orthogonalEdgeStyle;rounded=0;orthogonalLoop=1;jettySize=auto;html=1;exitX=0;exitY=0.5;exitDx=0;exitDy=0;endArrow=oval;endFill=0;" parent="1" source="88VnwZzMv4nlZKu8oqsL-6" edge="1">
          <mxGeometry relative="1" as="geometry">
            <mxPoint x="1419.55" y="689.0899999999999" as="targetPoint" />
            <Array as="points">
              <mxPoint x="1442.55" y="689.0899999999999" />
            </Array>
          </mxGeometry>
        </mxCell>
        <mxCell id="88VnwZzMv4nlZKu8oqsL-6" value="Abbigliamento" style="whiteSpace=wrap;html=1;align=center;" parent="1" vertex="1">
          <mxGeometry x="1442.05" y="662.8399999999999" width="85" height="30" as="geometry" />
        </mxCell>
        <mxCell id="88VnwZzMv4nlZKu8oqsL-8" value="&lt;font style=&quot;font-size: 8px;&quot;&gt;Nome&lt;/font&gt;" style="text;html=1;align=center;verticalAlign=middle;whiteSpace=wrap;rounded=0;" parent="1" vertex="1">
          <mxGeometry x="960.3299999999999" y="427.81" width="25" height="10" as="geometry" />
        </mxCell>
        <mxCell id="88VnwZzMv4nlZKu8oqsL-9" value="&lt;font style=&quot;font-size: 8px;&quot;&gt;Cognome&lt;/font&gt;" style="text;html=1;align=center;verticalAlign=middle;whiteSpace=wrap;rounded=0;" parent="1" vertex="1">
          <mxGeometry x="985.3299999999999" y="417.81" width="60" height="30" as="geometry" />
        </mxCell>
        <mxCell id="88VnwZzMv4nlZKu8oqsL-10" value="&lt;font style=&quot;font-size: 8px;&quot;&gt;Periodo storico&lt;/font&gt;" style="text;html=1;align=center;verticalAlign=middle;whiteSpace=wrap;rounded=0;" parent="1" vertex="1">
          <mxGeometry x="1475.1" y="447.06" width="70" height="30" as="geometry" />
        </mxCell>
        <mxCell id="88VnwZzMv4nlZKu8oqsL-11" value="&lt;font style=&quot;font-size: 8px;&quot;&gt;Nome&lt;/font&gt;" style="text;html=1;align=center;verticalAlign=middle;whiteSpace=wrap;rounded=0;" parent="1" vertex="1">
          <mxGeometry x="1431.1" y="447.06" width="60" height="30" as="geometry" />
        </mxCell>
        <mxCell id="88VnwZzMv4nlZKu8oqsL-12" value="&lt;font style=&quot;font-size: 8px;&quot;&gt;Misura&lt;/font&gt;" style="text;html=1;align=center;verticalAlign=middle;whiteSpace=wrap;rounded=1;strokeColor=none;" parent="1" vertex="1">
          <mxGeometry x="1282.57" y="417.06" width="50" height="12" as="geometry" />
        </mxCell>
        <mxCell id="88VnwZzMv4nlZKu8oqsL-13" value="&lt;font style=&quot;font-size: 8px;&quot;&gt;Modello&lt;/font&gt;" style="text;html=1;align=center;verticalAlign=middle;whiteSpace=wrap;rounded=1;strokeColor=none;" parent="1" vertex="1">
          <mxGeometry x="1241.6999999999998" y="359.82" width="40" height="20" as="geometry" />
        </mxCell>
        <mxCell id="88VnwZzMv4nlZKu8oqsL-14" value="&lt;font style=&quot;font-size: 8px;&quot;&gt;Marca&lt;/font&gt;" style="text;html=1;align=center;verticalAlign=middle;whiteSpace=wrap;rounded=1;strokeColor=none;glass=0;" parent="1" vertex="1">
          <mxGeometry x="1202.33" y="362.32" width="50" height="15" as="geometry" />
        </mxCell>
        <mxCell id="88VnwZzMv4nlZKu8oqsL-15" value="&lt;font style=&quot;font-size: 8px;&quot;&gt;Esperienza&lt;/font&gt;" style="text;html=1;align=center;verticalAlign=middle;whiteSpace=wrap;rounded=1;strokeColor=none;" parent="1" vertex="1">
          <mxGeometry x="895.83" y="662.8699999999999" width="49" height="23" as="geometry" />
        </mxCell>
        <mxCell id="88VnwZzMv4nlZKu8oqsL-16" value="&lt;font style=&quot;font-size: 9px;&quot;&gt;Materiale&lt;/font&gt;" style="text;html=1;align=center;verticalAlign=middle;whiteSpace=wrap;rounded=0;" parent="1" vertex="1">
          <mxGeometry x="1379.55" y="660.8399999999999" width="35" height="15" as="geometry" />
        </mxCell>
        <mxCell id="88VnwZzMv4nlZKu8oqsL-18" value="&lt;font style=&quot;font-size: 9px;&quot;&gt;Descrizione&lt;/font&gt;" style="text;html=1;align=center;verticalAlign=middle;whiteSpace=wrap;rounded=0;" parent="1" vertex="1">
          <mxGeometry x="1785.36" y="709.0400000000002" width="35" height="15" as="geometry" />
        </mxCell>
        <mxCell id="88VnwZzMv4nlZKu8oqsL-19" value="&lt;font style=&quot;font-size: 9px;&quot;&gt;Nome&lt;/font&gt;" style="text;html=1;align=center;verticalAlign=middle;whiteSpace=wrap;rounded=0;" parent="1" vertex="1">
          <mxGeometry x="1732.36" y="709.0400000000002" width="35" height="15" as="geometry" />
        </mxCell>
        <mxCell id="88VnwZzMv4nlZKu8oqsL-21" style="edgeStyle=orthogonalEdgeStyle;rounded=0;orthogonalLoop=1;jettySize=auto;html=1;exitX=0.25;exitY=0;exitDx=0;exitDy=0;endArrow=oval;endFill=1;" parent="1" source="88VnwZzMv4nlZKu8oqsL-24" edge="1">
          <mxGeometry relative="1" as="geometry">
            <mxPoint x="1787.1" y="470.69" as="targetPoint" />
          </mxGeometry>
        </mxCell>
        <mxCell id="88VnwZzMv4nlZKu8oqsL-22" style="edgeStyle=orthogonalEdgeStyle;rounded=0;orthogonalLoop=1;jettySize=auto;html=1;exitX=0.75;exitY=0;exitDx=0;exitDy=0;endArrow=oval;endFill=0;" parent="1" edge="1">
          <mxGeometry relative="1" as="geometry">
            <mxPoint x="1851.83" y="470.71" as="targetPoint" />
            <mxPoint x="1852.7999999999997" y="487.19" as="sourcePoint" />
          </mxGeometry>
        </mxCell>
        <mxCell id="88VnwZzMv4nlZKu8oqsL-23" style="edgeStyle=orthogonalEdgeStyle;rounded=0;orthogonalLoop=1;jettySize=auto;html=1;exitX=1;exitY=0.5;exitDx=0;exitDy=0;entryX=0.25;entryY=1;entryDx=0;entryDy=0;endArrow=oval;endFill=0;" parent="1" edge="1">
          <mxGeometry relative="1" as="geometry">
            <mxPoint x="1853.3999999999999" y="558.315" as="sourcePoint" />
            <mxPoint x="1889.3999999999999" y="550.69" as="targetPoint" />
          </mxGeometry>
        </mxCell>
        <mxCell id="88VnwZzMv4nlZKu8oqsL-25" value="Mosaici" style="whiteSpace=wrap;html=1;align=center;" parent="1" vertex="1">
          <mxGeometry x="1656.11" y="810.97" width="80" height="18.5" as="geometry" />
        </mxCell>
        <mxCell id="88VnwZzMv4nlZKu8oqsL-26" value="&lt;font style=&quot;font-size: 8px;&quot;&gt;Nome&lt;/font&gt;" style="text;html=1;align=center;verticalAlign=middle;whiteSpace=wrap;rounded=1;strokeColor=none;" parent="1" vertex="1">
          <mxGeometry x="1768.1499999999999" y="450.71000000000004" width="40" height="20" as="geometry" />
        </mxCell>
        <mxCell id="88VnwZzMv4nlZKu8oqsL-27" value="&lt;font style=&quot;font-size: 8px;&quot;&gt;Descrizione&lt;/font&gt;" style="text;html=1;align=center;verticalAlign=middle;whiteSpace=wrap;rounded=1;strokeColor=none;" parent="1" vertex="1">
          <mxGeometry x="1836.52" y="450.81000000000006" width="40" height="20" as="geometry" />
        </mxCell>
        <mxCell id="88VnwZzMv4nlZKu8oqsL-28" value="&lt;font style=&quot;font-size: 8px;&quot;&gt;Durata&lt;/font&gt;" style="text;html=1;align=center;verticalAlign=middle;whiteSpace=wrap;rounded=1;strokeColor=none;" parent="1" vertex="1">
          <mxGeometry x="1877.52" y="484.19" width="40" height="20" as="geometry" />
        </mxCell>
        <mxCell id="88VnwZzMv4nlZKu8oqsL-29" value="&lt;font style=&quot;font-size: 8px;&quot;&gt;(1,1)&lt;/font&gt;" style="text;html=1;align=center;verticalAlign=middle;whiteSpace=wrap;rounded=1;strokeColor=none;glass=0;" parent="1" vertex="1">
          <mxGeometry x="979.4" y="602.84" width="50" height="15" as="geometry" />
        </mxCell>
        <mxCell id="88VnwZzMv4nlZKu8oqsL-30" value="&lt;font style=&quot;font-size: 8px;&quot;&gt;(1,1)&lt;/font&gt;" style="text;html=1;align=center;verticalAlign=middle;whiteSpace=wrap;rounded=1;strokeColor=none;glass=0;" parent="1" vertex="1">
          <mxGeometry x="977.29" y="542.1100000000001" width="50" height="15" as="geometry" />
        </mxCell>
        <mxCell id="88VnwZzMv4nlZKu8oqsL-31" value="&lt;span style=&quot;font-size: 8px;&quot;&gt;(0,N)&lt;/span&gt;" style="text;html=1;align=center;verticalAlign=middle;whiteSpace=wrap;rounded=1;strokeColor=none;glass=0;" parent="1" vertex="1">
          <mxGeometry x="1576.8" y="482.69" width="50" height="15" as="geometry" />
        </mxCell>
        <mxCell id="88VnwZzMv4nlZKu8oqsL-32" value="&lt;span style=&quot;font-size: 8px;&quot;&gt;(1,1)&lt;/span&gt;" style="text;html=1;align=center;verticalAlign=middle;whiteSpace=wrap;rounded=1;strokeColor=none;glass=0;" parent="1" vertex="1">
          <mxGeometry x="1656.11" y="482.69" width="50" height="15" as="geometry" />
        </mxCell>
        <mxCell id="88VnwZzMv4nlZKu8oqsL-33" value="&lt;font style=&quot;font-size: 8px;&quot;&gt;Luogo&lt;/font&gt;" style="text;html=1;align=center;verticalAlign=middle;whiteSpace=wrap;rounded=1;strokeColor=none;" parent="1" vertex="1">
          <mxGeometry x="1876.52" y="497.69" width="40" height="20" as="geometry" />
        </mxCell>
        <mxCell id="88VnwZzMv4nlZKu8oqsL-34" value="&lt;font style=&quot;font-size: 8px;&quot;&gt;(1,N)&lt;/font&gt;" style="text;html=1;align=center;verticalAlign=middle;whiteSpace=wrap;rounded=1;strokeColor=none;glass=0;" parent="1" vertex="1">
          <mxGeometry x="1519.55" y="667.8399999999999" width="50" height="15" as="geometry" />
        </mxCell>
        <mxCell id="88VnwZzMv4nlZKu8oqsL-35" style="edgeStyle=orthogonalEdgeStyle;rounded=0;orthogonalLoop=1;jettySize=auto;html=1;exitX=0.5;exitY=1;exitDx=0;exitDy=0;" parent="1" edge="1">
          <mxGeometry relative="1" as="geometry">
            <mxPoint x="1598.2699999999998" y="498.63000000000005" as="sourcePoint" />
            <mxPoint x="1598.2699999999998" y="498.63000000000005" as="targetPoint" />
          </mxGeometry>
        </mxCell>
        <mxCell id="88VnwZzMv4nlZKu8oqsL-36" value="Guanti Haptic" style="whiteSpace=wrap;html=1;align=center;" parent="1" vertex="1">
          <mxGeometry x="1241.6999999999998" y="464.19" width="77.5" height="20" as="geometry" />
        </mxCell>
        <mxCell id="88VnwZzMv4nlZKu8oqsL-37" value="&lt;font style=&quot;font-size: 8px;&quot;&gt;(1,1)&lt;/font&gt;" style="text;html=1;align=center;verticalAlign=middle;whiteSpace=wrap;rounded=1;strokeColor=none;glass=0;" parent="1" vertex="1">
          <mxGeometry x="1666.8" y="607.8200000000002" width="50" height="15" as="geometry" />
        </mxCell>
        <mxCell id="88VnwZzMv4nlZKu8oqsL-38" value="&lt;span style=&quot;font-size: 8px;&quot;&gt;(1,N)&lt;/span&gt;" style="text;html=1;align=center;verticalAlign=middle;whiteSpace=wrap;rounded=1;strokeColor=none;glass=0;" parent="1" vertex="1">
          <mxGeometry x="1577.9799999999998" y="605.45" width="50" height="15" as="geometry" />
        </mxCell>
        <mxCell id="88VnwZzMv4nlZKu8oqsL-39" value="&lt;font style=&quot;font-size: 8px;&quot;&gt;CF&lt;/font&gt;" style="text;html=1;align=center;verticalAlign=middle;whiteSpace=wrap;rounded=0;" parent="1" vertex="1">
          <mxGeometry x="925.3299999999999" y="464.68" width="20" height="10" as="geometry" />
        </mxCell>
        <mxCell id="88VnwZzMv4nlZKu8oqsL-40" style="edgeStyle=orthogonalEdgeStyle;rounded=0;orthogonalLoop=1;jettySize=auto;html=1;exitX=0;exitY=0;exitDx=0;exitDy=0;endArrow=oval;endFill=0;" parent="1" edge="1">
          <mxGeometry relative="1" as="geometry">
            <mxPoint x="975.3299999999999" y="442.3" as="targetPoint" />
            <mxPoint x="975.3299999999999" y="460.3" as="sourcePoint" />
            <Array as="points" />
          </mxGeometry>
        </mxCell>
        <mxCell id="88VnwZzMv4nlZKu8oqsL-41" style="edgeStyle=orthogonalEdgeStyle;rounded=0;orthogonalLoop=1;jettySize=auto;html=1;exitX=0;exitY=0;exitDx=0;exitDy=0;endArrow=oval;endFill=0;" parent="1" edge="1">
          <mxGeometry relative="1" as="geometry">
            <mxPoint x="1015.3299999999999" y="442.3" as="targetPoint" />
            <mxPoint x="1015.3299999999999" y="460.3" as="sourcePoint" />
            <Array as="points" />
          </mxGeometry>
        </mxCell>
        <mxCell id="88VnwZzMv4nlZKu8oqsL-42" value="&lt;font style=&quot;font-size: 8px;&quot;&gt;Email&lt;/font&gt;" style="text;html=1;align=center;verticalAlign=middle;whiteSpace=wrap;rounded=0;" parent="1" vertex="1">
          <mxGeometry x="915.3299999999999" y="486.3" width="30" height="7" as="geometry" />
        </mxCell>
        <mxCell id="88VnwZzMv4nlZKu8oqsL-43" style="edgeStyle=orthogonalEdgeStyle;rounded=0;orthogonalLoop=1;jettySize=auto;html=1;exitX=0;exitY=0.25;exitDx=0;exitDy=0;endArrow=oval;endFill=1;" parent="1" source="88VnwZzMv4nlZKu8oqsL-3" edge="1">
          <mxGeometry relative="1" as="geometry">
            <mxPoint x="945.3299999999999" y="470.3" as="targetPoint" />
            <mxPoint x="900.3299999999999" y="449.06" as="sourcePoint" />
            <Array as="points" />
          </mxGeometry>
        </mxCell>
        <mxCell id="88VnwZzMv4nlZKu8oqsL-44" style="edgeStyle=orthogonalEdgeStyle;rounded=0;orthogonalLoop=1;jettySize=auto;html=1;exitX=0;exitY=0.25;exitDx=0;exitDy=0;endArrow=oval;endFill=1;" parent="1" edge="1">
          <mxGeometry relative="1" as="geometry">
            <mxPoint x="945.33" y="664.81" as="targetPoint" />
            <mxPoint x="965.33" y="664.5799999999999" as="sourcePoint" />
            <Array as="points">
              <mxPoint x="955.33" y="664.81" />
            </Array>
          </mxGeometry>
        </mxCell>
        <mxCell id="88VnwZzMv4nlZKu8oqsL-45" value="&lt;font style=&quot;font-size: 8px;&quot;&gt;Nickname&lt;/font&gt;" style="text;html=1;align=center;verticalAlign=middle;whiteSpace=wrap;rounded=1;strokeColor=none;" parent="1" vertex="1">
          <mxGeometry x="905.33" y="650.81" width="30" height="23.5" as="geometry" />
        </mxCell>
        <mxCell id="88VnwZzMv4nlZKu8oqsL-46" value="&lt;font style=&quot;font-size: 9px;&quot;&gt;Descrizione&lt;/font&gt;" style="text;html=1;align=center;verticalAlign=middle;whiteSpace=wrap;rounded=0;" parent="1" vertex="1">
          <mxGeometry x="1369.55" y="677.8399999999999" width="40" height="17" as="geometry" />
        </mxCell>
        <mxCell id="88VnwZzMv4nlZKu8oqsL-47" value="&lt;font style=&quot;font-size: 9px;&quot;&gt;Colore&lt;/font&gt;" style="text;html=1;align=center;verticalAlign=middle;whiteSpace=wrap;rounded=0;" parent="1" vertex="1">
          <mxGeometry x="1557.05" y="675.8399999999999" width="40" height="17" as="geometry" />
        </mxCell>
        <mxCell id="88VnwZzMv4nlZKu8oqsL-48" style="edgeStyle=orthogonalEdgeStyle;rounded=0;orthogonalLoop=1;jettySize=auto;html=1;exitX=1.011;exitY=0.878;exitDx=0;exitDy=0;endArrow=oval;endFill=0;exitPerimeter=0;" parent="1" edge="1">
          <mxGeometry relative="1" as="geometry">
            <mxPoint x="1527.0549999999998" y="686.29" as="sourcePoint" />
            <mxPoint x="1558.62" y="686.2" as="targetPoint" />
            <Array as="points">
              <mxPoint x="1538.62" y="686.2" />
              <mxPoint x="1538.62" y="686.2" />
            </Array>
          </mxGeometry>
        </mxCell>
        <mxCell id="88VnwZzMv4nlZKu8oqsL-49" value="&lt;font style=&quot;font-size: 9px;&quot;&gt;Nome&lt;/font&gt;" style="text;html=1;align=center;verticalAlign=middle;whiteSpace=wrap;rounded=0;" parent="1" vertex="1">
          <mxGeometry x="1434.55" y="619.0899999999999" width="40" height="17" as="geometry" />
        </mxCell>
        <mxCell id="88VnwZzMv4nlZKu8oqsL-50" style="edgeStyle=orthogonalEdgeStyle;rounded=0;orthogonalLoop=1;jettySize=auto;html=1;endArrow=oval;endFill=0;" parent="1" edge="1">
          <mxGeometry relative="1" as="geometry">
            <mxPoint x="1442.05" y="670.46" as="sourcePoint" />
            <mxPoint x="1420.05" y="670.21" as="targetPoint" />
            <Array as="points">
              <mxPoint x="1442.05" y="670.46" />
              <mxPoint x="1443.05" y="670.46" />
            </Array>
          </mxGeometry>
        </mxCell>
        <mxCell id="88VnwZzMv4nlZKu8oqsL-51" style="edgeStyle=orthogonalEdgeStyle;rounded=0;orthogonalLoop=1;jettySize=auto;html=1;endArrow=oval;endFill=1;" parent="1" edge="1">
          <mxGeometry relative="1" as="geometry">
            <mxPoint x="1454.55" y="662.8399999999999" as="sourcePoint" />
            <mxPoint x="1454.55" y="639.0899999999999" as="targetPoint" />
            <Array as="points">
              <mxPoint x="1454.55" y="662.8399999999999" />
            </Array>
          </mxGeometry>
        </mxCell>
        <mxCell id="88VnwZzMv4nlZKu8oqsL-52" value="&lt;font style=&quot;font-size: 8px;&quot;&gt;(1,1)&lt;/font&gt;" style="text;html=1;align=center;verticalAlign=middle;whiteSpace=wrap;rounded=1;strokeColor=none;glass=0;" parent="1" vertex="1">
          <mxGeometry x="1487.05" y="612.3399999999999" width="22.5" height="6.75" as="geometry" />
        </mxCell>
        <mxCell id="88VnwZzMv4nlZKu8oqsL-53" value="" style="edgeStyle=orthogonalEdgeStyle;rounded=0;orthogonalLoop=1;jettySize=auto;html=1;endArrow=none;endFill=0;exitX=-0.05;exitY=0.91;exitDx=0;exitDy=0;exitPerimeter=0;" parent="1" target="88VnwZzMv4nlZKu8oqsL-54" edge="1">
          <mxGeometry relative="1" as="geometry">
            <mxPoint x="1483.98" y="583.69" as="sourcePoint" />
            <mxPoint x="1483.98" y="664.04" as="targetPoint" />
          </mxGeometry>
        </mxCell>
        <mxCell id="88VnwZzMv4nlZKu8oqsL-54" value="Appartenenza" style="shape=rhombus;perimeter=rhombusPerimeter;whiteSpace=wrap;html=1;align=center;" parent="1" vertex="1">
          <mxGeometry x="1437.73" y="562.29" width="92.5" height="51" as="geometry" />
        </mxCell>
        <mxCell id="88VnwZzMv4nlZKu8oqsL-55" value="" style="endArrow=none;html=1;rounded=0;entryX=0.5;entryY=1;entryDx=0;entryDy=0;exitX=0.5;exitY=0;exitDx=0;exitDy=0;" parent="1" source="88VnwZzMv4nlZKu8oqsL-6" edge="1">
          <mxGeometry width="50" height="50" relative="1" as="geometry">
            <mxPoint x="1439.55" y="669.0899999999999" as="sourcePoint" />
            <mxPoint x="1484.55" y="612.3399999999999" as="targetPoint" />
          </mxGeometry>
        </mxCell>
        <mxCell id="88VnwZzMv4nlZKu8oqsL-56" value="" style="endArrow=none;html=1;rounded=0;exitX=0.5;exitY=0;exitDx=0;exitDy=0;" parent="1" source="88VnwZzMv4nlZKu8oqsL-54" edge="1">
          <mxGeometry width="50" height="50" relative="1" as="geometry">
            <mxPoint x="1518.98" y="550.04" as="sourcePoint" />
            <mxPoint x="1484.1" y="515.06" as="targetPoint" />
          </mxGeometry>
        </mxCell>
        <mxCell id="88VnwZzMv4nlZKu8oqsL-57" value="" style="shape=flexArrow;endArrow=classic;html=1;rounded=0;fillColor=#000000;endWidth=19.23076923076923;endSize=3.848717948717949;exitX=0.513;exitY=0.543;exitDx=0;exitDy=0;exitPerimeter=0;" parent="1" source="88VnwZzMv4nlZKu8oqsL-59" edge="1">
          <mxGeometry width="50" height="50" relative="1" as="geometry">
            <mxPoint x="1484.55" y="719.0899999999999" as="sourcePoint" />
            <mxPoint x="1484.3899999999999" y="692.8399999999999" as="targetPoint" />
          </mxGeometry>
        </mxCell>
        <mxCell id="88VnwZzMv4nlZKu8oqsL-58" value="&lt;font style=&quot;font-size: 9px;&quot;&gt;Stile&lt;/font&gt;" style="text;html=1;align=center;verticalAlign=middle;whiteSpace=wrap;rounded=0;" parent="1" vertex="1">
          <mxGeometry x="1347.1" y="725.06" width="40" height="15" as="geometry" />
        </mxCell>
        <mxCell id="88VnwZzMv4nlZKu8oqsL-59" value="" style="line;strokeWidth=1;rotatable=0;dashed=0;labelPosition=right;align=left;verticalAlign=middle;spacingTop=0;spacingLeft=6;points=[];portConstraint=eastwest;" parent="1" vertex="1">
          <mxGeometry x="1413.55" y="713.3399999999999" width="138" height="10" as="geometry" />
        </mxCell>
        <mxCell id="88VnwZzMv4nlZKu8oqsL-60" value="" style="endArrow=none;html=1;rounded=0;exitX=0.5;exitY=0;exitDx=0;exitDy=0;" parent="1" source="88VnwZzMv4nlZKu8oqsL-4" edge="1">
          <mxGeometry width="50" height="50" relative="1" as="geometry">
            <mxPoint x="1098.57" y="456.06000000000006" as="sourcePoint" />
            <mxPoint x="1155.57" y="451.06000000000006" as="targetPoint" />
          </mxGeometry>
        </mxCell>
        <mxCell id="88VnwZzMv4nlZKu8oqsL-61" value="" style="endArrow=none;html=1;rounded=0;" parent="1" edge="1">
          <mxGeometry width="50" height="50" relative="1" as="geometry">
            <mxPoint x="1155.07" y="451.06000000000006" as="sourcePoint" />
            <mxPoint x="1279.07" y="451.06000000000006" as="targetPoint" />
          </mxGeometry>
        </mxCell>
        <mxCell id="88VnwZzMv4nlZKu8oqsL-62" value="" style="shape=singleArrow;direction=north;whiteSpace=wrap;html=1;arrowWidth=0.3808905843098993;arrowSize=0.6576580700573631;" parent="1" vertex="1">
          <mxGeometry x="1202.9499999999998" y="432.31" width="30" height="18.5" as="geometry" />
        </mxCell>
        <mxCell id="88VnwZzMv4nlZKu8oqsL-63" value="" style="endArrow=none;html=1;rounded=0;entryX=0.476;entryY=-0.004;entryDx=0;entryDy=0;entryPerimeter=0;" parent="1" target="88VnwZzMv4nlZKu8oqsL-36" edge="1">
          <mxGeometry width="50" height="50" relative="1" as="geometry">
            <mxPoint x="1278.57" y="451.06000000000006" as="sourcePoint" />
            <mxPoint x="1358.57" y="406.06" as="targetPoint" />
          </mxGeometry>
        </mxCell>
        <mxCell id="88VnwZzMv4nlZKu8oqsL-64" style="edgeStyle=orthogonalEdgeStyle;rounded=0;orthogonalLoop=1;jettySize=auto;html=1;exitX=0;exitY=0;exitDx=0;exitDy=0;endArrow=oval;endFill=1;" parent="1" edge="1">
          <mxGeometry relative="1" as="geometry">
            <mxPoint x="1170.4499999999998" y="379.31" as="targetPoint" />
            <mxPoint x="1170.4499999999998" y="397.31" as="sourcePoint" />
            <Array as="points" />
          </mxGeometry>
        </mxCell>
        <mxCell id="88VnwZzMv4nlZKu8oqsL-65" value="&lt;font style=&quot;font-size: 8px;&quot;&gt;Numero di serie&lt;/font&gt;" style="text;html=1;align=center;verticalAlign=middle;whiteSpace=wrap;rounded=1;strokeColor=none;glass=0;" parent="1" vertex="1">
          <mxGeometry x="1141.08" y="366.07" width="65.62" height="7.5" as="geometry" />
        </mxCell>
        <mxCell id="88VnwZzMv4nlZKu8oqsL-66" style="edgeStyle=orthogonalEdgeStyle;rounded=0;orthogonalLoop=1;jettySize=auto;html=1;exitX=0;exitY=0;exitDx=0;exitDy=0;endArrow=oval;endFill=0;" parent="1" edge="1">
          <mxGeometry relative="1" as="geometry">
            <mxPoint x="1227.4499999999998" y="379.31" as="targetPoint" />
            <mxPoint x="1227.4499999999998" y="397.31" as="sourcePoint" />
            <Array as="points" />
          </mxGeometry>
        </mxCell>
        <mxCell id="88VnwZzMv4nlZKu8oqsL-67" style="edgeStyle=orthogonalEdgeStyle;rounded=0;orthogonalLoop=1;jettySize=auto;html=1;exitX=0;exitY=0;exitDx=0;exitDy=0;endArrow=oval;endFill=0;" parent="1" edge="1">
          <mxGeometry relative="1" as="geometry">
            <mxPoint x="1259.1999999999998" y="379.31" as="targetPoint" />
            <mxPoint x="1259.1999999999998" y="397.31" as="sourcePoint" />
            <Array as="points" />
          </mxGeometry>
        </mxCell>
        <mxCell id="88VnwZzMv4nlZKu8oqsL-68" style="edgeStyle=orthogonalEdgeStyle;rounded=0;orthogonalLoop=1;jettySize=auto;html=1;exitX=1;exitY=0.5;exitDx=0;exitDy=0;endArrow=oval;endFill=0;" parent="1" edge="1">
          <mxGeometry relative="1" as="geometry">
            <mxPoint x="1265.4499999999998" y="425.28000000000003" as="sourcePoint" />
            <mxPoint x="1288.57" y="425.28000000000003" as="targetPoint" />
          </mxGeometry>
        </mxCell>
        <mxCell id="88VnwZzMv4nlZKu8oqsL-69" style="edgeStyle=orthogonalEdgeStyle;rounded=0;orthogonalLoop=1;jettySize=auto;html=1;exitX=1;exitY=0.5;exitDx=0;exitDy=0;endArrow=oval;endFill=0;" parent="1" edge="1">
          <mxGeometry relative="1" as="geometry">
            <mxPoint x="1265.4499999999998" y="400.44" as="sourcePoint" />
            <mxPoint x="1288.57" y="400.44" as="targetPoint" />
          </mxGeometry>
        </mxCell>
        <mxCell id="88VnwZzMv4nlZKu8oqsL-70" value="&lt;font style=&quot;font-size: 8px;&quot;&gt;Tecnologia&lt;/font&gt;" style="text;html=1;align=center;verticalAlign=middle;whiteSpace=wrap;rounded=1;strokeColor=none;" parent="1" vertex="1">
          <mxGeometry x="1290.4499999999998" y="389.44" width="46" height="19" as="geometry" />
        </mxCell>
        <mxCell id="88VnwZzMv4nlZKu8oqsL-71" value="&lt;p style=&quot;line-height: 70%;&quot;&gt;&lt;font style=&quot;font-size: 9px;&quot;&gt;Area Geografica&lt;/font&gt;&lt;/p&gt;" style="text;html=1;align=center;verticalAlign=middle;whiteSpace=wrap;rounded=0;" parent="1" vertex="1">
          <mxGeometry x="1410.9099999999999" y="539.98" width="60" height="30" as="geometry" />
        </mxCell>
        <mxCell id="88VnwZzMv4nlZKu8oqsL-72" value="" style="shape=singleArrow;direction=north;whiteSpace=wrap;html=1;arrowWidth=0.3808905843098993;arrowSize=0.6576580700573631;" parent="1" vertex="1">
          <mxGeometry x="1796.52" y="516.06" width="30" height="18" as="geometry" />
        </mxCell>
        <mxCell id="88VnwZzMv4nlZKu8oqsL-73" value="Evento Storico" style="whiteSpace=wrap;html=1;align=center;" parent="1" vertex="1">
          <mxGeometry x="1710.27" y="547.3199999999999" width="82" height="20" as="geometry" />
        </mxCell>
        <mxCell id="88VnwZzMv4nlZKu8oqsL-74" value="Attività Quotidiane" style="whiteSpace=wrap;html=1;align=center;" parent="1" vertex="1">
          <mxGeometry x="1835.27" y="547.3199999999999" width="77.5" height="30" as="geometry" />
        </mxCell>
        <mxCell id="88VnwZzMv4nlZKu8oqsL-75" value="" style="endArrow=none;html=1;rounded=0;exitX=0.475;exitY=0.003;exitDx=0;exitDy=0;exitPerimeter=0;" parent="1" source="88VnwZzMv4nlZKu8oqsL-73" edge="1">
          <mxGeometry width="50" height="50" relative="1" as="geometry">
            <mxPoint x="1692.1399999999999" y="539.19" as="sourcePoint" />
            <mxPoint x="1749.1399999999999" y="534.19" as="targetPoint" />
          </mxGeometry>
        </mxCell>
        <mxCell id="88VnwZzMv4nlZKu8oqsL-76" value="" style="endArrow=none;html=1;rounded=0;" parent="1" edge="1">
          <mxGeometry width="50" height="50" relative="1" as="geometry">
            <mxPoint x="1748.6399999999999" y="534.19" as="sourcePoint" />
            <mxPoint x="1872.6399999999999" y="534.19" as="targetPoint" />
          </mxGeometry>
        </mxCell>
        <mxCell id="88VnwZzMv4nlZKu8oqsL-77" value="" style="endArrow=none;html=1;rounded=0;entryX=0.476;entryY=-0.004;entryDx=0;entryDy=0;entryPerimeter=0;" parent="1" target="88VnwZzMv4nlZKu8oqsL-74" edge="1">
          <mxGeometry width="50" height="50" relative="1" as="geometry">
            <mxPoint x="1872.1399999999999" y="534.19" as="sourcePoint" />
            <mxPoint x="1952.1399999999999" y="489.19" as="targetPoint" />
          </mxGeometry>
        </mxCell>
        <mxCell id="88VnwZzMv4nlZKu8oqsL-78" style="edgeStyle=orthogonalEdgeStyle;rounded=0;orthogonalLoop=1;jettySize=auto;html=1;exitX=1;exitY=0.5;exitDx=0;exitDy=0;endArrow=oval;endFill=0;" parent="1" edge="1">
          <mxGeometry relative="1" as="geometry">
            <mxPoint x="1856.52" y="495.99000000000007" as="sourcePoint" />
            <mxPoint x="1879.6399999999999" y="495.99000000000007" as="targetPoint" />
          </mxGeometry>
        </mxCell>
        <mxCell id="88VnwZzMv4nlZKu8oqsL-79" style="edgeStyle=orthogonalEdgeStyle;rounded=0;orthogonalLoop=1;jettySize=auto;html=1;exitX=1;exitY=0.5;exitDx=0;exitDy=0;endArrow=oval;endFill=0;" parent="1" edge="1">
          <mxGeometry relative="1" as="geometry">
            <mxPoint x="1856.52" y="509.69" as="sourcePoint" />
            <mxPoint x="1879.52" y="509.69" as="targetPoint" />
            <Array as="points">
              <mxPoint x="1872.52" y="509.69" />
            </Array>
          </mxGeometry>
        </mxCell>
        <mxCell id="88VnwZzMv4nlZKu8oqsL-80" value="Collezione" style="whiteSpace=wrap;html=1;align=center;" parent="1" vertex="1">
          <mxGeometry x="1732.36" y="742.2900000000002" width="90" height="28.75" as="geometry" />
        </mxCell>
        <mxCell id="88VnwZzMv4nlZKu8oqsL-81" style="edgeStyle=orthogonalEdgeStyle;rounded=0;orthogonalLoop=1;jettySize=auto;html=1;exitX=0.75;exitY=0;exitDx=0;exitDy=0;endArrow=oval;endFill=1;" parent="1" edge="1">
          <mxGeometry relative="1" as="geometry">
            <mxPoint x="1752.11" y="742.2800000000002" as="sourcePoint" />
            <mxPoint x="1750.11" y="726.2800000000002" as="targetPoint" />
          </mxGeometry>
        </mxCell>
        <mxCell id="88VnwZzMv4nlZKu8oqsL-82" style="edgeStyle=orthogonalEdgeStyle;rounded=0;orthogonalLoop=1;jettySize=auto;html=1;exitX=0.75;exitY=0;exitDx=0;exitDy=0;endArrow=oval;endFill=0;" parent="1" edge="1">
          <mxGeometry relative="1" as="geometry">
            <mxPoint x="1802.11" y="742.2900000000002" as="sourcePoint" />
            <mxPoint x="1800.11" y="726.2900000000002" as="targetPoint" />
          </mxGeometry>
        </mxCell>
        <mxCell id="88VnwZzMv4nlZKu8oqsL-83" value="" style="endArrow=none;html=1;rounded=0;" parent="1" edge="1">
          <mxGeometry width="50" height="50" relative="1" as="geometry">
            <mxPoint x="1696.8999999999999" y="790.54" as="sourcePoint" />
            <mxPoint x="1866.6799999999998" y="790.54" as="targetPoint" />
          </mxGeometry>
        </mxCell>
        <mxCell id="88VnwZzMv4nlZKu8oqsL-84" value="" style="endArrow=none;html=1;rounded=0;entryX=0.5;entryY=0;entryDx=0;entryDy=0;" parent="1" edge="1">
          <mxGeometry width="50" height="50" relative="1" as="geometry">
            <mxPoint x="1782.36" y="790.46" as="sourcePoint" />
            <mxPoint x="1782.36" y="810.46" as="targetPoint" />
          </mxGeometry>
        </mxCell>
        <mxCell id="88VnwZzMv4nlZKu8oqsL-85" value="" style="endArrow=none;html=1;rounded=0;entryX=0.5;entryY=0;entryDx=0;entryDy=0;" parent="1" edge="1">
          <mxGeometry width="50" height="50" relative="1" as="geometry">
            <mxPoint x="1866.0099999999998" y="790.5400000000002" as="sourcePoint" />
            <mxPoint x="1866.0099999999998" y="810.5400000000002" as="targetPoint" />
          </mxGeometry>
        </mxCell>
        <mxCell id="88VnwZzMv4nlZKu8oqsL-86" value="" style="endArrow=none;html=1;rounded=0;" parent="1" edge="1">
          <mxGeometry width="50" height="50" relative="1" as="geometry">
            <mxPoint x="1740.56" y="861.0400000000002" as="sourcePoint" />
            <mxPoint x="1740.56" y="771.0400000000002" as="targetPoint" />
          </mxGeometry>
        </mxCell>
        <mxCell id="88VnwZzMv4nlZKu8oqsL-87" value="" style="endArrow=none;html=1;rounded=0;exitX=0.5;exitY=1;exitDx=0;exitDy=0;" parent="1" source="88VnwZzMv4nlZKu8oqsL-145" edge="1">
          <mxGeometry width="50" height="50" relative="1" as="geometry">
            <mxPoint x="1493.3881811586791" y="929.4654863813232" as="sourcePoint" />
            <mxPoint x="1740.8" y="949.0400000000002" as="targetPoint" />
          </mxGeometry>
        </mxCell>
        <mxCell id="88VnwZzMv4nlZKu8oqsL-88" value="&lt;span style=&quot;font-size: 8px;&quot;&gt;(1,N)&lt;/span&gt;" style="text;html=1;align=center;verticalAlign=middle;whiteSpace=wrap;rounded=1;strokeColor=none;glass=0;" parent="1" vertex="1">
          <mxGeometry x="1732.36" y="841.94" width="50" height="15.277237354085603" as="geometry" />
        </mxCell>
        <mxCell id="88VnwZzMv4nlZKu8oqsL-92" value="&lt;font style=&quot;font-size: 9px;&quot;&gt;Datazione&lt;/font&gt;" style="text;html=1;align=center;verticalAlign=middle;whiteSpace=wrap;rounded=0;" parent="1" vertex="1">
          <mxGeometry x="1811.8" y="945.0400000000002" width="40" height="17.314202334630348" as="geometry" />
        </mxCell>
        <mxCell id="88VnwZzMv4nlZKu8oqsL-93" value="&lt;p style=&quot;line-height: 77%;&quot;&gt;&lt;font style=&quot;font-size: 9px;&quot;&gt;Significato Storico&lt;/font&gt;&lt;/p&gt;" style="text;html=1;align=center;verticalAlign=middle;whiteSpace=wrap;rounded=0;spacing=2;spacingTop=0;" parent="1" vertex="1">
          <mxGeometry x="1679.3" y="1006.0396108949417" width="55" height="17.314202334630348" as="geometry" />
        </mxCell>
        <mxCell id="88VnwZzMv4nlZKu8oqsL-94" style="edgeStyle=orthogonalEdgeStyle;rounded=0;orthogonalLoop=1;jettySize=auto;html=1;exitX=0.75;exitY=0;exitDx=0;exitDy=0;entryX=0.614;entryY=1.108;entryDx=0;entryDy=0;entryPerimeter=0;endArrow=oval;endFill=1;" parent="1" edge="1">
          <mxGeometry relative="1" as="geometry">
            <mxPoint x="1764.52" y="950" as="sourcePoint" />
            <mxPoint x="1764.52" y="938.5451478599223" as="targetPoint" />
          </mxGeometry>
        </mxCell>
        <mxCell id="88VnwZzMv4nlZKu8oqsL-95" style="edgeStyle=orthogonalEdgeStyle;rounded=0;orthogonalLoop=1;jettySize=auto;html=1;exitX=0.25;exitY=0;exitDx=0;exitDy=0;entryX=0.842;entryY=1.009;entryDx=0;entryDy=0;entryPerimeter=0;endArrow=oval;endFill=0;" parent="1" source="88VnwZzMv4nlZKu8oqsL-152" edge="1">
          <mxGeometry relative="1" as="geometry">
            <mxPoint x="1717.6" y="936.881041828794" as="targetPoint" />
          </mxGeometry>
        </mxCell>
        <mxCell id="88VnwZzMv4nlZKu8oqsL-96" style="edgeStyle=orthogonalEdgeStyle;rounded=0;orthogonalLoop=1;jettySize=auto;html=1;exitX=0.75;exitY=1;exitDx=0;exitDy=0;entryX=0.578;entryY=0.124;entryDx=0;entryDy=0;entryPerimeter=0;endArrow=oval;endFill=0;" parent="1" source="88VnwZzMv4nlZKu8oqsL-152" edge="1">
          <mxGeometry relative="1" as="geometry">
            <mxPoint x="1763.9199999999998" y="1001.5088482490273" as="targetPoint" />
          </mxGeometry>
        </mxCell>
        <mxCell id="88VnwZzMv4nlZKu8oqsL-97" value="&lt;span style=&quot;font-size: 8px;&quot;&gt;(1,1)&lt;/span&gt;" style="text;html=1;align=center;verticalAlign=middle;whiteSpace=wrap;rounded=1;strokeColor=none;glass=0;" parent="1" vertex="1">
          <mxGeometry x="1735.36" y="900.9013618677045" width="50" height="15.277237354085603" as="geometry" />
        </mxCell>
        <mxCell id="88VnwZzMv4nlZKu8oqsL-99" value="&lt;font style=&quot;font-size: 9px;&quot;&gt;Rarità&lt;/font&gt;" style="text;html=1;align=center;verticalAlign=middle;whiteSpace=wrap;rounded=0;" parent="1" vertex="1">
          <mxGeometry x="1744.3" y="999.9418871595333" width="40" height="17.314202334630348" as="geometry" />
        </mxCell>
        <mxCell id="88VnwZzMv4nlZKu8oqsL-100" style="edgeStyle=orthogonalEdgeStyle;rounded=0;orthogonalLoop=1;jettySize=auto;html=1;exitX=0.75;exitY=1;exitDx=0;exitDy=0;entryX=0.578;entryY=0.124;entryDx=0;entryDy=0;entryPerimeter=0;endArrow=oval;endFill=0;" parent="1" edge="1">
          <mxGeometry relative="1" as="geometry">
            <mxPoint x="1706.6899999999998" y="990.7" as="sourcePoint" />
            <mxPoint x="1706.8099999999997" y="1001.1688482490274" as="targetPoint" />
          </mxGeometry>
        </mxCell>
        <mxCell id="88VnwZzMv4nlZKu8oqsL-102" style="edgeStyle=orthogonalEdgeStyle;rounded=0;orthogonalLoop=1;jettySize=auto;html=1;exitX=1;exitY=0.5;exitDx=0;exitDy=0;endArrow=oval;endFill=0;" parent="1" edge="1">
          <mxGeometry relative="1" as="geometry">
            <mxPoint x="1822.36" y="763.6800000000001" as="sourcePoint" />
            <mxPoint x="1845.48" y="763.6800000000001" as="targetPoint" />
          </mxGeometry>
        </mxCell>
        <mxCell id="88VnwZzMv4nlZKu8oqsL-103" value="&lt;font style=&quot;font-size: 8px;&quot;&gt;Numero&lt;/font&gt;&lt;div style=&quot;line-height: 60%;&quot;&gt;&lt;font style=&quot;font-size: 8px;&quot;&gt;Oggetti&lt;/font&gt;&lt;/div&gt;" style="text;html=1;align=center;verticalAlign=middle;whiteSpace=wrap;rounded=1;strokeColor=none;" parent="1" vertex="1">
          <mxGeometry x="1826.11" y="737.72" width="40" height="18" as="geometry" />
        </mxCell>
        <mxCell id="88VnwZzMv4nlZKu8oqsL-104" style="edgeStyle=orthogonalEdgeStyle;rounded=0;orthogonalLoop=1;jettySize=auto;html=1;exitX=1;exitY=0.5;exitDx=0;exitDy=0;endArrow=oval;endFill=0;" parent="1" edge="1">
          <mxGeometry relative="1" as="geometry">
            <mxPoint x="1045.21" y="493.8" as="targetPoint" />
            <mxPoint x="1025.33" y="493.8" as="sourcePoint" />
            <Array as="points">
              <mxPoint x="1040.21" y="493.8" />
            </Array>
          </mxGeometry>
        </mxCell>
        <mxCell id="88VnwZzMv4nlZKu8oqsL-105" value="&lt;font style=&quot;font-size: 8px;&quot;&gt;Visite&lt;/font&gt;&lt;div style=&quot;line-height: 30%;&quot;&gt;&lt;font style=&quot;font-size: 8px;&quot;&gt;E&lt;/font&gt;&lt;span style=&quot;font-size: 8px; background-color: initial;&quot;&gt;ffettuate&lt;/span&gt;&lt;/div&gt;" style="text;html=1;align=center;verticalAlign=middle;whiteSpace=wrap;rounded=1;strokeColor=none;" parent="1" vertex="1">
          <mxGeometry x="1045.33" y="486.19" width="37" height="21" as="geometry" />
        </mxCell>
        <mxCell id="88VnwZzMv4nlZKu8oqsL-106" value="&lt;span style=&quot;font-size: 8px;&quot;&gt;(0,N)&lt;/span&gt;" style="text;html=1;align=center;verticalAlign=middle;whiteSpace=wrap;rounded=1;strokeColor=none;glass=0;" parent="1" vertex="1">
          <mxGeometry x="1385.8" y="957.0699999999999" width="22.5" height="6.75" as="geometry" />
        </mxCell>
        <mxCell id="88VnwZzMv4nlZKu8oqsL-107" value="&lt;font style=&quot;font-size: 8px;&quot;&gt;(0,N)&lt;/font&gt;" style="text;html=1;align=center;verticalAlign=middle;whiteSpace=wrap;rounded=1;strokeColor=none;glass=0;" parent="1" vertex="1">
          <mxGeometry x="1483.48" y="957.0699999999997" width="22.5" height="6.75" as="geometry" />
        </mxCell>
        <mxCell id="88VnwZzMv4nlZKu8oqsL-112" style="edgeStyle=orthogonalEdgeStyle;rounded=0;orthogonalLoop=1;jettySize=auto;html=1;exitX=0.5;exitY=1;exitDx=0;exitDy=0;" parent="1" edge="1">
          <mxGeometry relative="1" as="geometry">
            <mxPoint x="1620.12" y="305.86" as="sourcePoint" />
            <mxPoint x="1620.12" y="305.86" as="targetPoint" />
          </mxGeometry>
        </mxCell>
        <mxCell id="88VnwZzMv4nlZKu8oqsL-113" value="&lt;font style=&quot;font-size: 8px;&quot;&gt;Ora&lt;/font&gt;" style="text;html=1;align=center;verticalAlign=middle;whiteSpace=wrap;rounded=1;strokeColor=none;glass=0;" parent="1" vertex="1">
          <mxGeometry x="1009.5199999999999" y="253.62" width="50" height="15" as="geometry" />
        </mxCell>
        <mxCell id="88VnwZzMv4nlZKu8oqsL-114" value="&lt;font style=&quot;font-size: 8px;&quot;&gt;Ora Fine&lt;/font&gt;" style="text;html=1;align=center;verticalAlign=middle;whiteSpace=wrap;rounded=1;strokeColor=none;glass=0;" parent="1" vertex="1">
          <mxGeometry x="1126.1" y="334.94" width="42" height="19" as="geometry" />
        </mxCell>
        <mxCell id="88VnwZzMv4nlZKu8oqsL-115" value="&lt;font style=&quot;font-size: 8px;&quot;&gt;Data&lt;/font&gt;" style="text;html=1;align=center;verticalAlign=middle;whiteSpace=wrap;rounded=1;strokeColor=none;glass=0;" parent="1" vertex="1">
          <mxGeometry x="1009.5199999999999" y="241.06" width="50" height="15" as="geometry" />
        </mxCell>
        <mxCell id="88VnwZzMv4nlZKu8oqsL-116" style="edgeStyle=orthogonalEdgeStyle;rounded=0;orthogonalLoop=1;jettySize=auto;html=1;exitX=0;exitY=0;exitDx=0;exitDy=0;endArrow=oval;endFill=0;" parent="1" edge="1">
          <mxGeometry relative="1" as="geometry">
            <mxPoint x="1047.52" y="250.41999999999996" as="targetPoint" />
            <mxPoint x="1066.9" y="250.41999999999996" as="sourcePoint" />
            <Array as="points" />
          </mxGeometry>
        </mxCell>
        <mxCell id="88VnwZzMv4nlZKu8oqsL-117" style="edgeStyle=orthogonalEdgeStyle;rounded=0;orthogonalLoop=1;jettySize=auto;html=1;endArrow=oval;endFill=0;" parent="1" edge="1">
          <mxGeometry relative="1" as="geometry">
            <mxPoint x="1047.52" y="263.53999999999996" as="targetPoint" />
            <mxPoint x="1067.52" y="263.53999999999996" as="sourcePoint" />
            <Array as="points" />
          </mxGeometry>
        </mxCell>
        <mxCell id="88VnwZzMv4nlZKu8oqsL-118" value="" style="endArrow=none;html=1;rounded=0;entryX=0.551;entryY=1.003;entryDx=0;entryDy=0;entryPerimeter=0;" parent="1" edge="1">
          <mxGeometry width="50" height="50" relative="1" as="geometry">
            <mxPoint x="1077.02" y="289.15999999999997" as="sourcePoint" />
            <mxPoint x="1077.02" y="266.1" as="targetPoint" />
          </mxGeometry>
        </mxCell>
        <mxCell id="88VnwZzMv4nlZKu8oqsL-119" value="&lt;p style=&quot;line-height: 110%;&quot;&gt;&lt;font style=&quot;font-size: 7px;&quot;&gt;DataVisita&lt;/font&gt;&lt;/p&gt;" style="ellipse;whiteSpace=wrap;html=1;" parent="1" vertex="1">
          <mxGeometry x="1059.52" y="246.03999999999996" width="36.12" height="20" as="geometry" />
        </mxCell>
        <mxCell id="88VnwZzMv4nlZKu8oqsL-120" style="edgeStyle=orthogonalEdgeStyle;rounded=0;orthogonalLoop=1;jettySize=auto;html=1;exitX=1;exitY=0.5;exitDx=0;exitDy=0;endArrow=oval;endFill=0;" parent="1" edge="1">
          <mxGeometry relative="1" as="geometry">
            <mxPoint x="1144.08" y="334.99" as="targetPoint" />
            <mxPoint x="1143.9599999999998" y="315.005" as="sourcePoint" />
            <Array as="points">
              <mxPoint x="1144.08" y="334.99" />
            </Array>
          </mxGeometry>
        </mxCell>
        <mxCell id="88VnwZzMv4nlZKu8oqsL-121" value="&lt;font style=&quot;font-size: 8px;&quot;&gt;Durata&lt;/font&gt;" style="text;html=1;align=center;verticalAlign=middle;whiteSpace=wrap;rounded=1;strokeColor=none;glass=0;" parent="1" vertex="1">
          <mxGeometry x="1057.6" y="331.04" width="50" height="17" as="geometry" />
        </mxCell>
        <mxCell id="88VnwZzMv4nlZKu8oqsL-122" style="edgeStyle=orthogonalEdgeStyle;rounded=0;orthogonalLoop=1;jettySize=auto;html=1;exitX=1;exitY=0.5;exitDx=0;exitDy=0;endArrow=oval;endFill=0;" parent="1" edge="1">
          <mxGeometry relative="1" as="geometry">
            <mxPoint x="1081.48" y="334.08000000000004" as="targetPoint" />
            <mxPoint x="1081.0700000000002" y="313.65999999999997" as="sourcePoint" />
            <Array as="points">
              <mxPoint x="1081.0700000000002" y="333.65999999999997" />
            </Array>
          </mxGeometry>
        </mxCell>
        <mxCell id="88VnwZzMv4nlZKu8oqsL-123" value="&lt;span style=&quot;font-size: 8px;&quot;&gt;(1,N)&lt;/span&gt;" style="text;html=1;align=center;verticalAlign=middle;whiteSpace=wrap;rounded=1;strokeColor=none;glass=0;" parent="1" vertex="1">
          <mxGeometry x="990.0000000000002" y="321.50000000000006" width="22.5" height="6.75" as="geometry" />
        </mxCell>
        <mxCell id="88VnwZzMv4nlZKu8oqsL-124" value="&lt;font style=&quot;font-size: 8px;&quot;&gt;(0,N)&lt;/font&gt;" style="text;html=1;align=center;verticalAlign=middle;whiteSpace=wrap;rounded=1;strokeColor=none;glass=0;" parent="1" vertex="1">
          <mxGeometry x="1129.1499999999999" y="402.8099999999999" width="22.5" height="6.75" as="geometry" />
        </mxCell>
        <mxCell id="88VnwZzMv4nlZKu8oqsL-125" value="Sostiene" style="shape=rhombus;perimeter=rhombusPerimeter;whiteSpace=wrap;html=1;align=center;" parent="1" vertex="1">
          <mxGeometry x="953.8700000000001" y="279.5" width="73.56" height="42.36" as="geometry" />
        </mxCell>
        <mxCell id="88VnwZzMv4nlZKu8oqsL-126" value="" style="endArrow=none;html=1;rounded=0;entryX=1;entryY=0.5;entryDx=0;entryDy=0;" parent="1" target="88VnwZzMv4nlZKu8oqsL-125" edge="1">
          <mxGeometry width="50" height="50" relative="1" as="geometry">
            <mxPoint x="1423.6" y="302.06" as="sourcePoint" />
            <mxPoint x="1033.5700000000002" y="302.2400000000001" as="targetPoint" />
          </mxGeometry>
        </mxCell>
        <mxCell id="88VnwZzMv4nlZKu8oqsL-127" value="&lt;span style=&quot;font-size: 8px;&quot;&gt;(1,1)&lt;/span&gt;" style="text;html=1;align=center;verticalAlign=middle;whiteSpace=wrap;rounded=1;strokeColor=none;glass=0;" parent="1" vertex="1">
          <mxGeometry x="1027.4299999999998" y="288.7200000000001" width="22.5" height="6.75" as="geometry" />
        </mxCell>
        <mxCell id="88VnwZzMv4nlZKu8oqsL-128" value="&lt;span style=&quot;font-size: 8px;&quot;&gt;(1,N)&lt;/span&gt;" style="text;html=1;align=center;verticalAlign=middle;whiteSpace=wrap;rounded=1;strokeColor=none;glass=0;" parent="1" vertex="1">
          <mxGeometry x="1100.27" y="382.69000000000005" width="22.5" height="6.75" as="geometry" />
        </mxCell>
        <mxCell id="88VnwZzMv4nlZKu8oqsL-129" style="edgeStyle=orthogonalEdgeStyle;rounded=0;orthogonalLoop=1;jettySize=auto;html=1;exitX=0.25;exitY=0;exitDx=0;exitDy=0;entryX=0.842;entryY=1.009;entryDx=0;entryDy=0;entryPerimeter=0;endArrow=oval;endFill=1;" parent="1" edge="1">
          <mxGeometry relative="1" as="geometry">
            <mxPoint x="1107.6499999999999" y="288.72" as="sourcePoint" />
            <mxPoint x="1110.6499999999999" y="275.72" as="targetPoint" />
          </mxGeometry>
        </mxCell>
        <mxCell id="88VnwZzMv4nlZKu8oqsL-130" value="&lt;font style=&quot;font-size: 9px;&quot;&gt;Codice&lt;/font&gt;" style="text;html=1;align=center;verticalAlign=middle;whiteSpace=wrap;rounded=0;" parent="1" vertex="1">
          <mxGeometry x="1089.1499999999999" y="256.0610116731517" width="40" height="17.314202334630348" as="geometry" />
        </mxCell>
        <mxCell id="88VnwZzMv4nlZKu8oqsL-131" style="edgeStyle=orthogonalEdgeStyle;rounded=0;orthogonalLoop=1;jettySize=auto;html=1;exitX=0.5;exitY=1;exitDx=0;exitDy=0;" parent="1" edge="1">
          <mxGeometry relative="1" as="geometry">
            <mxPoint x="1825.7199999999998" y="299.05000000000007" as="sourcePoint" />
            <mxPoint x="1825.7199999999998" y="299.05000000000007" as="targetPoint" />
          </mxGeometry>
        </mxCell>
        <mxCell id="88VnwZzMv4nlZKu8oqsL-132" style="edgeStyle=orthogonalEdgeStyle;rounded=0;orthogonalLoop=1;jettySize=auto;html=1;exitX=0.5;exitY=1;exitDx=0;exitDy=0;" parent="1" edge="1">
          <mxGeometry relative="1" as="geometry">
            <mxPoint x="1843.7199999999998" y="298.1400000000001" as="sourcePoint" />
            <mxPoint x="1843.7199999999998" y="298.1400000000001" as="targetPoint" />
          </mxGeometry>
        </mxCell>
        <mxCell id="88VnwZzMv4nlZKu8oqsL-133" value="&lt;span style=&quot;font-size: 8px;&quot;&gt;(0,N)&lt;/span&gt;" style="text;html=1;align=center;verticalAlign=middle;whiteSpace=wrap;rounded=1;strokeColor=none;glass=0;" parent="1" vertex="1">
          <mxGeometry x="1551.55" y="282.3000000000001" width="22.5" height="6.75" as="geometry" />
        </mxCell>
        <mxCell id="88VnwZzMv4nlZKu8oqsL-134" value="&lt;font style=&quot;font-size: 8px;&quot;&gt;(0,N)&lt;/font&gt;" style="text;html=1;align=center;verticalAlign=middle;whiteSpace=wrap;rounded=1;strokeColor=none;glass=0;" parent="1" vertex="1">
          <mxGeometry x="1674.93" y="282.2999999999999" width="22.5" height="6.75" as="geometry" />
        </mxCell>
        <mxCell id="88VnwZzMv4nlZKu8oqsL-143" value="&lt;font style=&quot;font-size: 8px;&quot;&gt;Argomento&lt;/font&gt;" style="text;html=1;align=center;verticalAlign=middle;whiteSpace=wrap;rounded=1;strokeColor=none;" parent="1" vertex="1">
          <mxGeometry x="1082.77" y="903.56" width="40" height="19" as="geometry" />
        </mxCell>
        <mxCell id="88VnwZzMv4nlZKu8oqsL-144" value="" style="shape=singleArrow;direction=north;whiteSpace=wrap;html=1;arrowWidth=0.3808905843098993;arrowSize=0.6576580700573631;" parent="1" vertex="1">
          <mxGeometry x="1765.1399999999999" y="771.0400000000002" width="30" height="19.5" as="geometry" />
        </mxCell>
        <mxCell id="88VnwZzMv4nlZKu8oqsL-145" value="Contenimento" style="shape=rhombus;perimeter=rhombusPerimeter;whiteSpace=wrap;html=1;align=center;" parent="1" vertex="1">
          <mxGeometry x="1697.4299999999998" y="859.7900000000002" width="86.56" height="49.63" as="geometry" />
        </mxCell>
        <mxCell id="88VnwZzMv4nlZKu8oqsL-146" value="Geroglifici" style="whiteSpace=wrap;html=1;align=center;" parent="1" vertex="1">
          <mxGeometry x="1744.3" y="810.97" width="71.68" height="18.5" as="geometry" />
        </mxCell>
        <mxCell id="88VnwZzMv4nlZKu8oqsL-147" value="Storie Nascoste" style="whiteSpace=wrap;html=1;align=center;" parent="1" vertex="1">
          <mxGeometry x="1819.8" y="810.97" width="87" height="18.07" as="geometry" />
        </mxCell>
        <mxCell id="88VnwZzMv4nlZKu8oqsL-148" style="edgeStyle=orthogonalEdgeStyle;rounded=0;orthogonalLoop=1;jettySize=auto;html=1;endArrow=oval;endFill=0;" parent="1" edge="1">
          <mxGeometry relative="1" as="geometry">
            <mxPoint x="1788.9199999999998" y="954.9100000000001" as="sourcePoint" />
            <mxPoint x="1806.8" y="955.0400000000002" as="targetPoint" />
            <Array as="points">
              <mxPoint x="1796.8" y="955.0400000000002" />
            </Array>
          </mxGeometry>
        </mxCell>
        <mxCell id="88VnwZzMv4nlZKu8oqsL-149" value="" style="endArrow=none;html=1;rounded=0;" parent="1" edge="1">
          <mxGeometry width="50" height="50" relative="1" as="geometry">
            <mxPoint x="1636.8" y="1109.4783829195208" as="sourcePoint" />
            <mxPoint x="1636.8" y="979.0400000000002" as="targetPoint" />
          </mxGeometry>
        </mxCell>
        <mxCell id="88VnwZzMv4nlZKu8oqsL-150" value="" style="endArrow=none;html=1;rounded=0;" parent="1" edge="1">
          <mxGeometry width="50" height="50" relative="1" as="geometry">
            <mxPoint x="1839.7199999999998" y="1108.5400000000002" as="sourcePoint" />
            <mxPoint x="1839.7199999999998" y="979.3300000000002" as="targetPoint" />
          </mxGeometry>
        </mxCell>
        <mxCell id="88VnwZzMv4nlZKu8oqsL-151" value="" style="endArrow=none;html=1;rounded=0;" parent="1" edge="1">
          <mxGeometry width="50" height="50" relative="1" as="geometry">
            <mxPoint x="1636.8" y="979.0400000000002" as="sourcePoint" />
            <mxPoint x="1840.3" y="979.0400000000002" as="targetPoint" />
          </mxGeometry>
        </mxCell>
        <mxCell id="88VnwZzMv4nlZKu8oqsL-152" value="Oggetto" style="whiteSpace=wrap;html=1;align=center;" parent="1" vertex="1">
          <mxGeometry x="1688.9199999999998" y="949.965486381323" width="100" height="40.73929961089494" as="geometry" />
        </mxCell>
        <mxCell id="88VnwZzMv4nlZKu8oqsL-154" value="Correlazione" style="shape=rhombus;perimeter=rhombusPerimeter;whiteSpace=wrap;html=1;align=center;" parent="1" vertex="1">
          <mxGeometry x="1698.74" y="1082.5777626459144" width="80" height="50.92412451361867" as="geometry" />
        </mxCell>
        <mxCell id="88VnwZzMv4nlZKu8oqsL-155" value="&lt;font style=&quot;font-size: 8px;&quot;&gt;(0,N)&lt;/font&gt;" style="text;html=1;align=center;verticalAlign=middle;whiteSpace=wrap;rounded=1;strokeColor=none;glass=0;" parent="1" vertex="1">
          <mxGeometry x="1670.86" y="1086.41" width="50" height="19" as="geometry" />
        </mxCell>
        <mxCell id="88VnwZzMv4nlZKu8oqsL-156" value="&lt;font style=&quot;font-size: 8px;&quot;&gt;(0,N)&lt;/font&gt;" style="text;html=1;align=center;verticalAlign=middle;whiteSpace=wrap;rounded=1;strokeColor=none;glass=0;" parent="1" vertex="1">
          <mxGeometry x="1754.86" y="1082.96" width="50" height="24.24" as="geometry" />
        </mxCell>
        <mxCell id="88VnwZzMv4nlZKu8oqsL-157" value="&lt;font style=&quot;font-size: 9px;&quot;&gt;Descrizione&lt;/font&gt;" style="text;html=1;align=center;verticalAlign=middle;whiteSpace=wrap;rounded=0;" parent="1" vertex="1">
          <mxGeometry x="1681.62" y="1122.4900000000002" width="40" height="17.314202334630348" as="geometry" />
        </mxCell>
        <mxCell id="88VnwZzMv4nlZKu8oqsL-158" style="edgeStyle=orthogonalEdgeStyle;rounded=0;orthogonalLoop=1;jettySize=auto;html=1;exitX=1;exitY=0;exitDx=0;exitDy=0;endArrow=oval;endFill=0;" parent="1" edge="1">
          <mxGeometry relative="1" as="geometry">
            <mxPoint x="1698.62" y="1108.18" as="sourcePoint" />
            <mxPoint x="1698.62" y="1123.18" as="targetPoint" />
          </mxGeometry>
        </mxCell>
        <mxCell id="88VnwZzMv4nlZKu8oqsL-159" value="" style="endArrow=none;html=1;rounded=0;entryX=0;entryY=0.5;entryDx=0;entryDy=0;" parent="1" target="88VnwZzMv4nlZKu8oqsL-154" edge="1">
          <mxGeometry width="50" height="50" relative="1" as="geometry">
            <mxPoint x="1636.8" y="1109.0400000000002" as="sourcePoint" />
            <mxPoint x="1681.48" y="1095.41" as="targetPoint" />
          </mxGeometry>
        </mxCell>
        <mxCell id="88VnwZzMv4nlZKu8oqsL-160" value="" style="endArrow=none;html=1;rounded=0;exitX=1;exitY=0.5;exitDx=0;exitDy=0;" parent="1" source="88VnwZzMv4nlZKu8oqsL-154" edge="1">
          <mxGeometry width="50" height="50" relative="1" as="geometry">
            <mxPoint x="1771.4799999999998" y="1085.41" as="sourcePoint" />
            <mxPoint x="1839.8" y="1108.0400000000002" as="targetPoint" />
          </mxGeometry>
        </mxCell>
        <mxCell id="88VnwZzMv4nlZKu8oqsL-161" style="edgeStyle=orthogonalEdgeStyle;rounded=0;orthogonalLoop=1;jettySize=auto;html=1;exitX=0.5;exitY=1;exitDx=0;exitDy=0;" parent="1" edge="1">
          <mxGeometry relative="1" as="geometry">
            <mxPoint x="911.01" y="843.12" as="sourcePoint" />
            <mxPoint x="911.01" y="843.12" as="targetPoint" />
          </mxGeometry>
        </mxCell>
        <mxCell id="88VnwZzMv4nlZKu8oqsL-162" style="edgeStyle=orthogonalEdgeStyle;rounded=0;orthogonalLoop=1;jettySize=auto;html=1;exitX=0.5;exitY=1;exitDx=0;exitDy=0;" parent="1" edge="1">
          <mxGeometry relative="1" as="geometry">
            <mxPoint x="922.2699999999999" y="871.6499999999999" as="sourcePoint" />
            <mxPoint x="922.2699999999999" y="871.6499999999999" as="targetPoint" />
          </mxGeometry>
        </mxCell>
        <mxCell id="88VnwZzMv4nlZKu8oqsL-163" style="edgeStyle=orthogonalEdgeStyle;rounded=0;orthogonalLoop=1;jettySize=auto;html=1;exitX=0.5;exitY=1;exitDx=0;exitDy=0;" parent="1" edge="1">
          <mxGeometry relative="1" as="geometry">
            <mxPoint x="940.2699999999999" y="870.74" as="sourcePoint" />
            <mxPoint x="940.2699999999999" y="870.74" as="targetPoint" />
          </mxGeometry>
        </mxCell>
        <mxCell id="88VnwZzMv4nlZKu8oqsL-164" value="&lt;font style=&quot;font-size: 8px;&quot;&gt;(0,N)&lt;/font&gt;" style="text;html=1;align=center;verticalAlign=middle;whiteSpace=wrap;rounded=1;strokeColor=none;glass=0;" parent="1" vertex="1">
          <mxGeometry x="993.1499999999997" y="822.7199999999998" width="22.5" height="6.75" as="geometry" />
        </mxCell>
        <mxCell id="88VnwZzMv4nlZKu8oqsL-171" value="&lt;font style=&quot;font-size: 8px;&quot;&gt;(0,N)&lt;/font&gt;" style="text;html=1;align=center;verticalAlign=middle;whiteSpace=wrap;rounded=1;strokeColor=none;glass=0;" parent="1" vertex="1">
          <mxGeometry x="988.75" y="763.39" width="22.5" height="8.79" as="geometry" />
        </mxCell>
        <mxCell id="88VnwZzMv4nlZKu8oqsL-177" style="edgeStyle=orthogonalEdgeStyle;rounded=0;orthogonalLoop=1;jettySize=auto;html=1;exitX=0.5;exitY=1;exitDx=0;exitDy=0;" parent="1" edge="1">
          <mxGeometry relative="1" as="geometry">
            <mxPoint x="1214.64" y="810.9699999999999" as="sourcePoint" />
            <mxPoint x="1214.64" y="810.9699999999999" as="targetPoint" />
          </mxGeometry>
        </mxCell>
        <mxCell id="88VnwZzMv4nlZKu8oqsL-178" value="&lt;font style=&quot;font-size: 8px;&quot;&gt;(1,1)&lt;/font&gt;" style="text;html=1;align=center;verticalAlign=middle;whiteSpace=wrap;rounded=1;strokeColor=none;glass=0;" parent="1" vertex="1">
          <mxGeometry x="1165.45" y="795.66" width="22.5" height="8.79" as="geometry" />
        </mxCell>
        <mxCell id="88VnwZzMv4nlZKu8oqsL-179" style="edgeStyle=orthogonalEdgeStyle;rounded=0;orthogonalLoop=1;jettySize=auto;html=1;exitX=0.5;exitY=1;exitDx=0;exitDy=0;" parent="1" edge="1">
          <mxGeometry relative="1" as="geometry">
            <mxPoint x="1121.1" y="812.05" as="sourcePoint" />
            <mxPoint x="1121.1" y="812.05" as="targetPoint" />
          </mxGeometry>
        </mxCell>
        <mxCell id="88VnwZzMv4nlZKu8oqsL-181" style="edgeStyle=orthogonalEdgeStyle;rounded=0;orthogonalLoop=1;jettySize=auto;html=1;exitX=0.5;exitY=1;exitDx=0;exitDy=0;" parent="1" edge="1">
          <mxGeometry relative="1" as="geometry">
            <mxPoint x="1333.1299999999999" y="779.8399999999999" as="sourcePoint" />
            <mxPoint x="1333.1299999999999" y="779.8399999999999" as="targetPoint" />
          </mxGeometry>
        </mxCell>
        <mxCell id="88VnwZzMv4nlZKu8oqsL-182" value="&lt;font style=&quot;font-size: 8px;&quot;&gt;(0,N)&lt;/font&gt;" style="text;html=1;align=center;verticalAlign=middle;whiteSpace=wrap;rounded=1;strokeColor=none;glass=0;" parent="1" vertex="1">
          <mxGeometry x="1267.9499999999996" y="795.6599999999999" width="22.5" height="8.79" as="geometry" />
        </mxCell>
        <mxCell id="88VnwZzMv4nlZKu8oqsL-188" style="edgeStyle=orthogonalEdgeStyle;rounded=0;orthogonalLoop=1;jettySize=auto;html=1;exitX=0.5;exitY=1;exitDx=0;exitDy=0;" parent="1" edge="1">
          <mxGeometry relative="1" as="geometry">
            <mxPoint x="1066.56" y="555.96" as="sourcePoint" />
            <mxPoint x="1066.56" y="555.96" as="targetPoint" />
          </mxGeometry>
        </mxCell>
        <mxCell id="88VnwZzMv4nlZKu8oqsL-189" value="&lt;font style=&quot;font-size: 8px;&quot;&gt;(0,N)&lt;/font&gt;" style="text;html=1;align=center;verticalAlign=middle;whiteSpace=wrap;rounded=1;strokeColor=none;glass=0;" parent="1" vertex="1">
          <mxGeometry x="1158.5099999999998" y="712.1500000000001" width="22.5" height="8.79" as="geometry" />
        </mxCell>
        <mxCell id="88VnwZzMv4nlZKu8oqsL-190" style="edgeStyle=orthogonalEdgeStyle;rounded=0;orthogonalLoop=1;jettySize=auto;html=1;exitX=0.5;exitY=1;exitDx=0;exitDy=0;" parent="1" edge="1">
          <mxGeometry relative="1" as="geometry">
            <mxPoint x="993" y="611.73" as="sourcePoint" />
            <mxPoint x="993" y="611.73" as="targetPoint" />
          </mxGeometry>
        </mxCell>
        <mxCell id="88VnwZzMv4nlZKu8oqsL-192" style="edgeStyle=orthogonalEdgeStyle;rounded=0;orthogonalLoop=1;jettySize=auto;html=1;exitX=0.5;exitY=1;exitDx=0;exitDy=0;" parent="1" edge="1">
          <mxGeometry relative="1" as="geometry">
            <mxPoint x="1327.58" y="562.9100000000001" as="sourcePoint" />
            <mxPoint x="1327.58" y="562.9100000000001" as="targetPoint" />
          </mxGeometry>
        </mxCell>
        <mxCell id="88VnwZzMv4nlZKu8oqsL-193" value="&lt;font style=&quot;font-size: 8px;&quot;&gt;(0,N)&lt;/font&gt;" style="text;html=1;align=center;verticalAlign=middle;whiteSpace=wrap;rounded=1;strokeColor=none;glass=0;" parent="1" vertex="1">
          <mxGeometry x="1265.9499999999996" y="713.9400000000002" width="22.5" height="8.79" as="geometry" />
        </mxCell>
        <mxCell id="88VnwZzMv4nlZKu8oqsL-200" style="edgeStyle=orthogonalEdgeStyle;rounded=0;orthogonalLoop=1;jettySize=auto;html=1;exitX=0;exitY=0.25;exitDx=0;exitDy=0;endArrow=oval;endFill=0;" parent="1" edge="1">
          <mxGeometry relative="1" as="geometry">
            <mxPoint x="945.33" y="676.23" as="targetPoint" />
            <mxPoint x="965.33" y="676" as="sourcePoint" />
            <Array as="points">
              <mxPoint x="955.33" y="676.23" />
            </Array>
          </mxGeometry>
        </mxCell>
        <mxCell id="88VnwZzMv4nlZKu8oqsL-208" value="" style="endArrow=none;html=1;rounded=0;" parent="1" edge="1">
          <mxGeometry width="50" height="50" relative="1" as="geometry">
            <mxPoint x="1120.5" y="810.64" as="sourcePoint" />
            <mxPoint x="1530.23" y="810.6999999999999" as="targetPoint" />
          </mxGeometry>
        </mxCell>
        <mxCell id="88VnwZzMv4nlZKu8oqsL-210" value="&lt;font style=&quot;font-size: 9px;&quot;&gt;Scopo&lt;/font&gt;" style="text;html=1;align=center;verticalAlign=middle;whiteSpace=wrap;rounded=0;" parent="1" vertex="1">
          <mxGeometry x="1591.73" y="718.06" width="40" height="17" as="geometry" />
        </mxCell>
        <mxCell id="88VnwZzMv4nlZKu8oqsL-211" style="edgeStyle=orthogonalEdgeStyle;rounded=0;orthogonalLoop=1;jettySize=auto;html=1;exitX=1.001;exitY=0.609;exitDx=0;exitDy=0;endArrow=oval;endFill=0;exitPerimeter=0;" parent="1" edge="1">
          <mxGeometry relative="1" as="geometry">
            <mxPoint x="1581.7275" y="728.1599999999999" as="sourcePoint" />
            <mxPoint x="1594.1599999999999" y="727.9100000000001" as="targetPoint" />
          </mxGeometry>
        </mxCell>
        <mxCell id="88VnwZzMv4nlZKu8oqsL-213" style="edgeStyle=orthogonalEdgeStyle;rounded=0;orthogonalLoop=1;jettySize=auto;html=1;exitX=1.001;exitY=0.609;exitDx=0;exitDy=0;endArrow=oval;endFill=0;exitPerimeter=0;" parent="1" edge="1">
          <mxGeometry relative="1" as="geometry">
            <mxPoint x="1393.4199999999998" y="735.0600000000002" as="sourcePoint" />
            <mxPoint x="1381.4199999999998" y="735.0700000000002" as="targetPoint" />
          </mxGeometry>
        </mxCell>
        <mxCell id="88VnwZzMv4nlZKu8oqsL-237" value="" style="endArrow=none;html=1;rounded=0;entryX=0.5;entryY=1;entryDx=0;entryDy=0;" parent="1" edge="1">
          <mxGeometry width="50" height="50" relative="1" as="geometry">
            <mxPoint x="1530.23" y="811.2" as="sourcePoint" />
            <mxPoint x="1530.3400000000001" y="737.7199999999998" as="targetPoint" />
          </mxGeometry>
        </mxCell>
        <mxCell id="88VnwZzMv4nlZKu8oqsL-238" value="" style="endArrow=none;html=1;rounded=0;entryX=0;entryY=0.25;entryDx=0;entryDy=0;" parent="1" edge="1">
          <mxGeometry width="50" height="50" relative="1" as="geometry">
            <mxPoint x="1138.2" y="728.18" as="sourcePoint" />
            <mxPoint x="1392.1" y="728.5399999999998" as="targetPoint" />
          </mxGeometry>
        </mxCell>
        <mxCell id="88VnwZzMv4nlZKu8oqsL-240" value="&lt;span style=&quot;font-size: 8px;&quot;&gt;(1,N)&lt;/span&gt;" style="text;html=1;align=center;verticalAlign=middle;whiteSpace=wrap;rounded=1;strokeColor=none;glass=0;" parent="1" vertex="1">
          <mxGeometry x="1483.48" y="551.6100000000001" width="22.5" height="6.75" as="geometry" />
        </mxCell>
        <mxCell id="88VnwZzMv4nlZKu8oqsL-241" style="edgeStyle=orthogonalEdgeStyle;rounded=0;orthogonalLoop=1;jettySize=auto;html=1;exitX=0.25;exitY=0;exitDx=0;exitDy=0;entryX=0.5;entryY=1;entryDx=0;entryDy=0;endArrow=oval;endFill=0;" parent="1" edge="1">
          <mxGeometry relative="1" as="geometry">
            <mxPoint x="1461.6000000000004" y="472.2" as="targetPoint" />
            <mxPoint x="1459.1" y="489.6999999999999" as="sourcePoint" />
          </mxGeometry>
        </mxCell>
        <mxCell id="88VnwZzMv4nlZKu8oqsL-242" style="edgeStyle=orthogonalEdgeStyle;rounded=0;orthogonalLoop=1;jettySize=auto;html=1;exitX=1;exitY=0;exitDx=0;exitDy=0;entryX=0.25;entryY=1;entryDx=0;entryDy=0;endArrow=oval;endFill=0;" parent="1" source="88VnwZzMv4nlZKu8oqsL-268" edge="1">
          <mxGeometry relative="1" as="geometry">
            <mxPoint x="1508.4100000000003" y="472.2" as="targetPoint" />
          </mxGeometry>
        </mxCell>
        <mxCell id="88VnwZzMv4nlZKu8oqsL-243" value="" style="curved=1;endArrow=oval;html=1;rounded=0;entryX=0.642;entryY=0.924;entryDx=0;entryDy=0;entryPerimeter=0;endFill=1;" parent="1" edge="1">
          <mxGeometry width="50" height="50" relative="1" as="geometry">
            <mxPoint x="1439.1" y="484.47999999999996" as="sourcePoint" />
            <mxPoint x="1544.04" y="472.20000000000005" as="targetPoint" />
            <Array as="points">
              <mxPoint x="1489.1" y="484.47999999999996" />
              <mxPoint x="1539.1" y="484.47999999999996" />
            </Array>
          </mxGeometry>
        </mxCell>
        <mxCell id="88VnwZzMv4nlZKu8oqsL-244" value="&lt;font style=&quot;font-size: 8px;&quot;&gt;(1,N)&lt;/font&gt;" style="text;html=1;align=center;verticalAlign=middle;whiteSpace=wrap;rounded=1;strokeColor=none;glass=0;" parent="1" vertex="1">
          <mxGeometry x="1415.9099999999999" y="519.7" width="50" height="15" as="geometry" />
        </mxCell>
        <mxCell id="88VnwZzMv4nlZKu8oqsL-245" style="edgeStyle=orthogonalEdgeStyle;rounded=0;orthogonalLoop=1;jettySize=auto;html=1;exitX=0.25;exitY=1;exitDx=0;exitDy=0;endArrow=oval;endFill=0;" parent="1" edge="1">
          <mxGeometry relative="1" as="geometry">
            <mxPoint x="1455.1" y="519.06" as="sourcePoint" />
            <mxPoint x="1453.1" y="545.06" as="targetPoint" />
          </mxGeometry>
        </mxCell>
        <mxCell id="88VnwZzMv4nlZKu8oqsL-246" value="" style="endArrow=none;html=1;rounded=0;entryX=0;entryY=0.5;entryDx=0;entryDy=0;exitX=1;exitY=0.5;exitDx=0;exitDy=0;" parent="1" source="88VnwZzMv4nlZKu8oqsL-267" target="88VnwZzMv4nlZKu8oqsL-24" edge="1">
          <mxGeometry width="50" height="50" relative="1" as="geometry">
            <mxPoint x="1568.74" y="500.89000000000004" as="sourcePoint" />
            <mxPoint x="1614.2399999999998" y="500.88999999999993" as="targetPoint" />
          </mxGeometry>
        </mxCell>
        <mxCell id="88VnwZzMv4nlZKu8oqsL-247" value="" style="endArrow=none;html=1;rounded=0;exitX=1;exitY=0.25;exitDx=0;exitDy=0;" parent="1" source="88VnwZzMv4nlZKu8oqsL-3" edge="1">
          <mxGeometry width="50" height="50" relative="1" as="geometry">
            <mxPoint x="1045.33" y="481.19" as="sourcePoint" />
            <mxPoint x="1045.33" y="470.19" as="targetPoint" />
          </mxGeometry>
        </mxCell>
        <mxCell id="88VnwZzMv4nlZKu8oqsL-248" value="" style="endArrow=none;html=1;rounded=0;" parent="1" target="88VnwZzMv4nlZKu8oqsL-125" edge="1">
          <mxGeometry width="50" height="50" relative="1" as="geometry">
            <mxPoint x="988" y="887" as="sourcePoint" />
            <mxPoint x="929.0999999999999" y="325.06" as="targetPoint" />
          </mxGeometry>
        </mxCell>
        <mxCell id="88VnwZzMv4nlZKu8oqsL-249" value="" style="endArrow=none;html=1;rounded=0;" parent="1" edge="1">
          <mxGeometry width="50" height="50" relative="1" as="geometry">
            <mxPoint x="1355.8" y="969.5" as="sourcePoint" />
            <mxPoint x="1356.1" y="312.06" as="targetPoint" />
          </mxGeometry>
        </mxCell>
        <mxCell id="88VnwZzMv4nlZKu8oqsL-254" value="" style="endArrow=none;html=1;rounded=0;entryX=0;entryY=0.5;entryDx=0;entryDy=0;" parent="1" source="88VnwZzMv4nlZKu8oqsL-322" target="88VnwZzMv4nlZKu8oqsL-152" edge="1">
          <mxGeometry width="50" height="50" relative="1" as="geometry">
            <mxPoint x="1566.49" y="1018.01" as="sourcePoint" />
            <mxPoint x="1616.49" y="968.01" as="targetPoint" />
          </mxGeometry>
        </mxCell>
        <mxCell id="88VnwZzMv4nlZKu8oqsL-258" value="" style="endArrow=none;html=1;rounded=0;entryX=0.5;entryY=0;entryDx=0;entryDy=0;" parent="1" edge="1">
          <mxGeometry width="50" height="50" relative="1" as="geometry">
            <mxPoint x="1697.4299999999998" y="790.5400000000002" as="sourcePoint" />
            <mxPoint x="1697.4299999999998" y="810.5400000000002" as="targetPoint" />
          </mxGeometry>
        </mxCell>
        <mxCell id="88VnwZzMv4nlZKu8oqsL-259" value="" style="endArrow=none;html=1;rounded=0;exitX=1;exitY=0.75;exitDx=0;exitDy=0;" parent="1" source="88VnwZzMv4nlZKu8oqsL-268" edge="1">
          <mxGeometry width="50" height="50" relative="1" as="geometry">
            <mxPoint x="1619.1" y="595.06" as="sourcePoint" />
            <mxPoint x="1589.1" y="512.06" as="targetPoint" />
          </mxGeometry>
        </mxCell>
        <mxCell id="88VnwZzMv4nlZKu8oqsL-260" value="" style="endArrow=none;html=1;rounded=0;" parent="1" edge="1">
          <mxGeometry width="50" height="50" relative="1" as="geometry">
            <mxPoint x="1589.1" y="625.06" as="sourcePoint" />
            <mxPoint x="1589.1" y="511.56" as="targetPoint" />
          </mxGeometry>
        </mxCell>
        <mxCell id="88VnwZzMv4nlZKu8oqsL-261" value="" style="endArrow=none;html=1;rounded=0;" parent="1" edge="1">
          <mxGeometry width="50" height="50" relative="1" as="geometry">
            <mxPoint x="1589.1" y="625.06" as="sourcePoint" />
            <mxPoint x="1639.1" y="625.06" as="targetPoint" />
          </mxGeometry>
        </mxCell>
        <mxCell id="88VnwZzMv4nlZKu8oqsL-262" value="" style="endArrow=none;html=1;rounded=0;entryX=0;entryY=0.5;entryDx=0;entryDy=0;" parent="1" target="88VnwZzMv4nlZKu8oqsL-80" edge="1">
          <mxGeometry width="50" height="50" relative="1" as="geometry">
            <mxPoint x="1698.6" y="757.06" as="sourcePoint" />
            <mxPoint x="1719.1" y="685.06" as="targetPoint" />
          </mxGeometry>
        </mxCell>
        <mxCell id="88VnwZzMv4nlZKu8oqsL-263" value="" style="endArrow=none;html=1;rounded=0;exitX=1;exitY=0.5;exitDx=0;exitDy=0;" parent="1" source="88VnwZzMv4nlZKu8oqsL-265" edge="1">
          <mxGeometry width="50" height="50" relative="1" as="geometry">
            <mxPoint x="1693.9199999999998" y="630.5999999999999" as="sourcePoint" />
            <mxPoint x="1699.1" y="625.06" as="targetPoint" />
          </mxGeometry>
        </mxCell>
        <mxCell id="88VnwZzMv4nlZKu8oqsL-264" value="" style="endArrow=none;html=1;rounded=0;" parent="1" edge="1">
          <mxGeometry width="50" height="50" relative="1" as="geometry">
            <mxPoint x="1699.1" y="757.06" as="sourcePoint" />
            <mxPoint x="1699.1" y="624.56" as="targetPoint" />
          </mxGeometry>
        </mxCell>
        <mxCell id="88VnwZzMv4nlZKu8oqsL-265" value="Pertinenza" style="shape=rhombus;perimeter=rhombusPerimeter;whiteSpace=wrap;html=1;align=center;" parent="1" vertex="1">
          <mxGeometry x="1604.9799999999998" y="602.8399999999999" width="80" height="45" as="geometry" />
        </mxCell>
        <mxCell id="88VnwZzMv4nlZKu8oqsL-266" value="" style="endArrow=none;html=1;rounded=0;entryX=0;entryY=0.5;entryDx=0;entryDy=0;exitX=0.968;exitY=0.39;exitDx=0;exitDy=0;exitPerimeter=0;" parent="1" source="88VnwZzMv4nlZKu8oqsL-268" target="88VnwZzMv4nlZKu8oqsL-267" edge="1">
          <mxGeometry width="50" height="50" relative="1" as="geometry">
            <mxPoint x="1519.1" y="501.06" as="sourcePoint" />
            <mxPoint x="1766.1" y="501.06" as="targetPoint" />
          </mxGeometry>
        </mxCell>
        <mxCell id="88VnwZzMv4nlZKu8oqsL-267" value="Offerta" style="shape=rhombus;perimeter=rhombusPerimeter;whiteSpace=wrap;html=1;align=center;" parent="1" vertex="1">
          <mxGeometry x="1604.9799999999998" y="478.81" width="70" height="45" as="geometry" />
        </mxCell>
        <mxCell id="88VnwZzMv4nlZKu8oqsL-268" value="Civiltà" style="whiteSpace=wrap;html=1;align=center;" parent="1" vertex="1">
          <mxGeometry x="1450.9099999999999" y="489.6999999999999" width="70" height="30" as="geometry" />
        </mxCell>
        <mxCell id="88VnwZzMv4nlZKu8oqsL-276" value="&lt;font style=&quot;font-size: 9px;&quot;&gt;Codice&lt;/font&gt;" style="text;html=1;align=center;verticalAlign=middle;whiteSpace=wrap;rounded=0;" parent="1" vertex="1">
          <mxGeometry x="994.2699999999999" y="853.23" width="42.67" height="17.9" as="geometry" />
        </mxCell>
        <mxCell id="88VnwZzMv4nlZKu8oqsL-277" style="edgeStyle=orthogonalEdgeStyle;rounded=0;orthogonalLoop=1;jettySize=auto;html=1;exitX=0.75;exitY=0;exitDx=0;exitDy=0;endArrow=oval;endFill=1;" parent="1" edge="1">
          <mxGeometry relative="1" as="geometry">
            <mxPoint x="1018.3899999999998" y="889.1400000000001" as="sourcePoint" />
            <mxPoint x="1016.3899999999998" y="873.1400000000001" as="targetPoint" />
          </mxGeometry>
        </mxCell>
        <mxCell id="88VnwZzMv4nlZKu8oqsL-278" value="&lt;font style=&quot;font-size: 8px;&quot;&gt;Tema&lt;/font&gt;&lt;div style=&quot;line-height: 50%;&quot;&gt;&lt;font style=&quot;font-size: 8px;&quot;&gt;Storico&lt;/font&gt;&lt;/div&gt;" style="text;html=1;align=center;verticalAlign=middle;whiteSpace=wrap;rounded=1;strokeColor=none;" parent="1" vertex="1">
          <mxGeometry x="978.9999999999999" y="982.9099999999999" width="40" height="20" as="geometry" />
        </mxCell>
        <mxCell id="88VnwZzMv4nlZKu8oqsL-288" value="&lt;font style=&quot;font-size: 8px;&quot;&gt;Azione&lt;/font&gt;" style="text;html=1;align=center;verticalAlign=middle;whiteSpace=wrap;rounded=1;strokeColor=none;" parent="1" vertex="1">
          <mxGeometry x="1034" y="763.39" width="39" height="24" as="geometry" />
        </mxCell>
        <mxCell id="88VnwZzMv4nlZKu8oqsL-290" style="edgeStyle=orthogonalEdgeStyle;rounded=0;orthogonalLoop=1;jettySize=auto;html=1;exitX=1.002;exitY=0.482;exitDx=0;exitDy=0;endArrow=oval;endFill=0;entryX=-0.112;entryY=0.718;entryDx=0;entryDy=0;entryPerimeter=0;exitPerimeter=0;" parent="1" edge="1">
          <mxGeometry relative="1" as="geometry">
            <mxPoint x="1052.38" y="915.5936600000002" as="sourcePoint" />
            <mxPoint x="1075.62" y="915.47" as="targetPoint" />
            <Array as="points">
              <mxPoint x="1065.63" y="915.47" />
            </Array>
          </mxGeometry>
        </mxCell>
        <mxCell id="88VnwZzMv4nlZKu8oqsL-291" value="" style="endArrow=none;html=1;rounded=0;exitX=0.5;exitY=0;exitDx=0;exitDy=0;" parent="1" edge="1">
          <mxGeometry width="50" height="50" relative="1" as="geometry">
            <mxPoint x="1819.8" y="488.06" as="sourcePoint" />
            <mxPoint x="1819" y="295" as="targetPoint" />
          </mxGeometry>
        </mxCell>
        <mxCell id="88VnwZzMv4nlZKu8oqsL-292" value="" style="endArrow=none;html=1;rounded=0;exitX=0.5;exitY=0;exitDx=0;exitDy=0;" parent="1" edge="1">
          <mxGeometry width="50" height="50" relative="1" as="geometry">
            <mxPoint x="1100.27" y="399.06" as="sourcePoint" />
            <mxPoint x="1100.1" y="313.06" as="targetPoint" />
          </mxGeometry>
        </mxCell>
        <mxCell id="88VnwZzMv4nlZKu8oqsL-293" value="" style="endArrow=none;html=1;rounded=0;" parent="1" edge="1">
          <mxGeometry width="50" height="50" relative="1" as="geometry">
            <mxPoint x="1128.33" y="415.00000000000006" as="sourcePoint" />
            <mxPoint x="1179.1" y="415.06" as="targetPoint" />
          </mxGeometry>
        </mxCell>
        <mxCell id="88VnwZzMv4nlZKu8oqsL-294" value="Oggetti Informatici" style="whiteSpace=wrap;html=1;align=center;" parent="1" vertex="1">
          <mxGeometry x="1165.4499999999998" y="397.31" width="100" height="35" as="geometry" />
        </mxCell>
        <mxCell id="88VnwZzMv4nlZKu8oqsL-295" value="Utilizza" style="shape=rhombus;perimeter=rhombusPerimeter;whiteSpace=wrap;html=1;align=center;" parent="1" vertex="1">
          <mxGeometry x="1065.4499999999998" y="395.30999999999995" width="70" height="39.81" as="geometry" />
        </mxCell>
        <mxCell id="88VnwZzMv4nlZKu8oqsL-296" value="" style="endArrow=none;html=1;rounded=0;" parent="1" edge="1">
          <mxGeometry width="50" height="50" relative="1" as="geometry">
            <mxPoint x="1423.1" y="505.06" as="sourcePoint" />
            <mxPoint x="1423.1" y="302.06" as="targetPoint" />
          </mxGeometry>
        </mxCell>
        <mxCell id="88VnwZzMv4nlZKu8oqsL-297" value="&lt;span style=&quot;font-size: 8px;&quot;&gt;(1,1)&lt;/span&gt;" style="text;html=1;align=center;verticalAlign=middle;whiteSpace=wrap;rounded=1;strokeColor=none;glass=0;" parent="1" vertex="1">
          <mxGeometry x="1413.55" y="338.94" width="50" height="15" as="geometry" />
        </mxCell>
        <mxCell id="88VnwZzMv4nlZKu8oqsL-298" value="&lt;span style=&quot;font-size: 8px;&quot;&gt;(0,N)&lt;/span&gt;" style="text;html=1;align=center;verticalAlign=middle;whiteSpace=wrap;rounded=1;strokeColor=none;glass=0;" parent="1" vertex="1">
          <mxGeometry x="1423.9299999999998" y="402.81" width="50" height="15" as="geometry" />
        </mxCell>
        <mxCell id="88VnwZzMv4nlZKu8oqsL-299" value="" style="endArrow=none;html=1;rounded=0;" parent="1" edge="1">
          <mxGeometry width="50" height="50" relative="1" as="geometry">
            <mxPoint x="1356.6" y="312.06" as="sourcePoint" />
            <mxPoint x="1139.1" y="312.06" as="targetPoint" />
          </mxGeometry>
        </mxCell>
        <mxCell id="88VnwZzMv4nlZKu8oqsL-300" value="" style="endArrow=none;html=1;rounded=0;" parent="1" edge="1">
          <mxGeometry width="50" height="50" relative="1" as="geometry">
            <mxPoint x="1819.5" y="295" as="sourcePoint" />
            <mxPoint x="1142" y="295.47" as="targetPoint" />
          </mxGeometry>
        </mxCell>
        <mxCell id="88VnwZzMv4nlZKu8oqsL-301" value="Visita" style="whiteSpace=wrap;html=1;align=center;" parent="1" vertex="1">
          <mxGeometry x="1063.96" y="288.72" width="90.38" height="26.28" as="geometry" />
        </mxCell>
        <mxCell id="88VnwZzMv4nlZKu8oqsL-303" value="Esplorazione" style="shape=rhombus;perimeter=rhombusPerimeter;whiteSpace=wrap;html=1;align=center;" parent="1" vertex="1">
          <mxGeometry x="1371.9099999999999" y="353.94" width="103.19" height="57.74" as="geometry" />
        </mxCell>
        <mxCell id="88VnwZzMv4nlZKu8oqsL-304" value="" style="endArrow=none;html=1;rounded=0;" parent="1" edge="1">
          <mxGeometry width="50" height="50" relative="1" as="geometry">
            <mxPoint x="1422.6" y="505.06" as="sourcePoint" />
            <mxPoint x="1451.1" y="505.06" as="targetPoint" />
          </mxGeometry>
        </mxCell>
        <mxCell id="88VnwZzMv4nlZKu8oqsL-305" value="Conversazione" style="whiteSpace=wrap;html=1;align=center;" parent="1" vertex="1">
          <mxGeometry x="974.7699999999999" y="884.51" width="83" height="35.63" as="geometry" />
        </mxCell>
        <mxCell id="88VnwZzMv4nlZKu8oqsL-306" style="edgeStyle=orthogonalEdgeStyle;rounded=0;orthogonalLoop=1;jettySize=auto;html=1;exitX=1;exitY=0.5;exitDx=0;exitDy=0;entryX=0.25;entryY=1;entryDx=0;entryDy=0;endArrow=oval;endFill=0;" parent="1" edge="1">
          <mxGeometry relative="1" as="geometry">
            <mxPoint x="1057.4899999999998" y="962.395" as="sourcePoint" />
            <mxPoint x="1093.4899999999998" y="954.77" as="targetPoint" />
          </mxGeometry>
        </mxCell>
        <mxCell id="88VnwZzMv4nlZKu8oqsL-307" value="" style="shape=singleArrow;direction=north;whiteSpace=wrap;html=1;arrowWidth=0.3808905843098993;arrowSize=0.6576580700573631;" parent="1" vertex="1">
          <mxGeometry x="1000.6099999999998" y="920.1399999999999" width="30" height="18" as="geometry" />
        </mxCell>
        <mxCell id="88VnwZzMv4nlZKu8oqsL-308" value="Discussione Virtuale" style="whiteSpace=wrap;html=1;align=center;" parent="1" vertex="1">
          <mxGeometry x="914.3599999999999" y="951.3999999999999" width="81.41" height="30.16" as="geometry" />
        </mxCell>
        <mxCell id="88VnwZzMv4nlZKu8oqsL-309" value="Nuova&lt;div&gt;Teoria&lt;/div&gt;" style="whiteSpace=wrap;html=1;align=center;" parent="1" vertex="1">
          <mxGeometry x="1039.36" y="951.3999999999999" width="77.5" height="30" as="geometry" />
        </mxCell>
        <mxCell id="88VnwZzMv4nlZKu8oqsL-310" value="" style="endArrow=none;html=1;rounded=0;exitX=0.475;exitY=0.003;exitDx=0;exitDy=0;exitPerimeter=0;" parent="1" source="88VnwZzMv4nlZKu8oqsL-308" edge="1">
          <mxGeometry width="50" height="50" relative="1" as="geometry">
            <mxPoint x="896.2299999999998" y="943.27" as="sourcePoint" />
            <mxPoint x="953.2299999999998" y="938.27" as="targetPoint" />
          </mxGeometry>
        </mxCell>
        <mxCell id="88VnwZzMv4nlZKu8oqsL-311" value="" style="endArrow=none;html=1;rounded=0;" parent="1" edge="1">
          <mxGeometry width="50" height="50" relative="1" as="geometry">
            <mxPoint x="952.7299999999998" y="938.27" as="sourcePoint" />
            <mxPoint x="1076.7299999999998" y="938.27" as="targetPoint" />
          </mxGeometry>
        </mxCell>
        <mxCell id="88VnwZzMv4nlZKu8oqsL-312" value="" style="endArrow=none;html=1;rounded=0;entryX=0.476;entryY=-0.004;entryDx=0;entryDy=0;entryPerimeter=0;" parent="1" target="88VnwZzMv4nlZKu8oqsL-309" edge="1">
          <mxGeometry width="50" height="50" relative="1" as="geometry">
            <mxPoint x="1076.2299999999998" y="938.27" as="sourcePoint" />
            <mxPoint x="1156.23" y="893.27" as="targetPoint" />
          </mxGeometry>
        </mxCell>
        <mxCell id="88VnwZzMv4nlZKu8oqsL-313" style="edgeStyle=orthogonalEdgeStyle;rounded=0;orthogonalLoop=1;jettySize=auto;html=1;exitX=0.75;exitY=1;exitDx=0;exitDy=0;entryX=0.578;entryY=0.124;entryDx=0;entryDy=0;entryPerimeter=0;endArrow=oval;endFill=0;" parent="1" edge="1">
          <mxGeometry relative="1" as="geometry">
            <mxPoint x="983.2799999999999" y="981.56" as="sourcePoint" />
            <mxPoint x="983.3999999999997" y="992.0288482490273" as="targetPoint" />
          </mxGeometry>
        </mxCell>
        <mxCell id="88VnwZzMv4nlZKu8oqsL-317" value="Vestizione&lt;div&gt;passata&lt;/div&gt;" style="shape=rhombus;perimeter=rhombusPerimeter;whiteSpace=wrap;html=1;align=center;" parent="1" vertex="1">
          <mxGeometry x="1168.9199999999998" y="701.86" width="101.9" height="53" as="geometry" />
        </mxCell>
        <mxCell id="88VnwZzMv4nlZKu8oqsL-320" value="Utilizzo&lt;div&gt;corrente&lt;/div&gt;" style="shape=rhombus;perimeter=rhombusPerimeter;whiteSpace=wrap;html=1;align=center;" parent="1" vertex="1">
          <mxGeometry x="1181.01" y="782.5" width="89.81" height="56" as="geometry" />
        </mxCell>
        <mxCell id="88VnwZzMv4nlZKu8oqsL-323" value="" style="endArrow=none;html=1;rounded=0;entryX=0;entryY=0.5;entryDx=0;entryDy=0;" parent="1" target="88VnwZzMv4nlZKu8oqsL-322" edge="1">
          <mxGeometry width="50" height="50" relative="1" as="geometry">
            <mxPoint x="1356" y="969" as="sourcePoint" />
            <mxPoint x="1689" y="970" as="targetPoint" />
          </mxGeometry>
        </mxCell>
        <mxCell id="88VnwZzMv4nlZKu8oqsL-329" value="&lt;font style=&quot;font-size: 9px;&quot;&gt;Nome&lt;/font&gt;" style="text;html=1;align=center;verticalAlign=middle;whiteSpace=wrap;rounded=0;" parent="1" vertex="1">
          <mxGeometry x="1745.3599999999997" y="919.411011673152" width="40" height="17.314202334630348" as="geometry" />
        </mxCell>
        <mxCell id="88VnwZzMv4nlZKu8oqsL-24" value="Esperienza" style="whiteSpace=wrap;html=1;align=center;" parent="1" vertex="1">
          <mxGeometry x="1765.9899999999998" y="487.17" width="90" height="28.75" as="geometry" />
        </mxCell>
        <mxCell id="88VnwZzMv4nlZKu8oqsL-135" value="Partecipazione" style="shape=rhombus;perimeter=rhombusPerimeter;whiteSpace=wrap;html=1;align=center;" parent="1" vertex="1">
          <mxGeometry x="1569.55" y="272" width="110" height="46" as="geometry" />
        </mxCell>
        <mxCell id="88VnwZzMv4nlZKu8oqsL-3" value="Visitatore" style="whiteSpace=wrap;html=1;align=center;" parent="1" vertex="1">
          <mxGeometry x="965.3299999999999" y="460.3" width="60" height="40.01" as="geometry" />
        </mxCell>
        <mxCell id="88VnwZzMv4nlZKu8oqsL-7" value="Creazione" style="shape=rhombus;perimeter=rhombusPerimeter;whiteSpace=wrap;html=1;align=center;" parent="1" vertex="1">
          <mxGeometry x="951" y="558.36" width="77.5" height="45" as="geometry" />
        </mxCell>
        <mxCell id="88VnwZzMv4nlZKu8oqsL-327" style="edgeStyle=orthogonalEdgeStyle;rounded=0;orthogonalLoop=1;jettySize=auto;html=1;endArrow=oval;endFill=0;exitX=1;exitY=0.5;exitDx=0;exitDy=0;" parent="1" source="88VnwZzMv4nlZKu8oqsL-165" edge="1">
          <mxGeometry relative="1" as="geometry">
            <mxPoint x="1053" y="785" as="targetPoint" />
            <mxPoint x="1045.3300000000002" y="790.54" as="sourcePoint" />
            <Array as="points">
              <mxPoint x="1053" y="791" />
              <mxPoint x="1053" y="791" />
            </Array>
          </mxGeometry>
        </mxCell>
        <mxCell id="88VnwZzMv4nlZKu8oqsL-165" value="InterazioneAvatar" style="shape=rhombus;perimeter=rhombusPerimeter;whiteSpace=wrap;html=1;align=center;" parent="1" vertex="1">
          <mxGeometry x="923.6400000000001" y="776.65" width="129.43" height="46.81" as="geometry" />
        </mxCell>
        <mxCell id="88VnwZzMv4nlZKu8oqsL-332" value="" style="endArrow=none;html=1;rounded=0;exitX=1;exitY=0.5;exitDx=0;exitDy=0;" parent="1" edge="1">
          <mxGeometry width="50" height="50" relative="1" as="geometry">
            <mxPoint x="1025.33" y="657" as="sourcePoint" />
            <mxPoint x="1176" y="657" as="targetPoint" />
          </mxGeometry>
        </mxCell>
        <mxCell id="88VnwZzMv4nlZKu8oqsL-333" value="" style="endArrow=none;html=1;rounded=0;" parent="1" edge="1">
          <mxGeometry width="50" height="50" relative="1" as="geometry">
            <mxPoint x="1138.63" y="728" as="sourcePoint" />
            <mxPoint x="1138.63" y="663" as="targetPoint" />
          </mxGeometry>
        </mxCell>
        <mxCell id="88VnwZzMv4nlZKu8oqsL-334" value="" style="endArrow=none;html=1;rounded=0;exitX=1;exitY=0.5;exitDx=0;exitDy=0;" parent="1" edge="1">
          <mxGeometry width="50" height="50" relative="1" as="geometry">
            <mxPoint x="1025.33" y="681.05" as="sourcePoint" />
            <mxPoint x="1089.6" y="681.05" as="targetPoint" />
          </mxGeometry>
        </mxCell>
        <mxCell id="88VnwZzMv4nlZKu8oqsL-335" value="" style="endArrow=none;html=1;rounded=0;" parent="1" edge="1">
          <mxGeometry width="50" height="50" relative="1" as="geometry">
            <mxPoint x="1089" y="899" as="sourcePoint" />
            <mxPoint x="1089.15" y="681" as="targetPoint" />
          </mxGeometry>
        </mxCell>
        <mxCell id="88VnwZzMv4nlZKu8oqsL-338" value="" style="endArrow=none;html=1;rounded=0;exitX=1;exitY=0.5;exitDx=0;exitDy=0;" parent="1" edge="1">
          <mxGeometry width="50" height="50" relative="1" as="geometry">
            <mxPoint x="1024" y="662.8699999999998" as="sourcePoint" />
            <mxPoint x="1139.1" y="663" as="targetPoint" />
          </mxGeometry>
        </mxCell>
        <mxCell id="88VnwZzMv4nlZKu8oqsL-339" value="" style="endArrow=none;html=1;rounded=0;exitX=1;exitY=0.5;exitDx=0;exitDy=0;" parent="1" edge="1">
          <mxGeometry width="50" height="50" relative="1" as="geometry">
            <mxPoint x="1025.33" y="674.1199999999998" as="sourcePoint" />
            <mxPoint x="1120.5" y="674.31" as="targetPoint" />
          </mxGeometry>
        </mxCell>
        <mxCell id="88VnwZzMv4nlZKu8oqsL-341" value="" style="endArrow=none;html=1;rounded=0;" parent="1" edge="1">
          <mxGeometry width="50" height="50" relative="1" as="geometry">
            <mxPoint x="1320" y="722" as="sourcePoint" />
            <mxPoint x="1393" y="722.05" as="targetPoint" />
          </mxGeometry>
        </mxCell>
        <mxCell id="88VnwZzMv4nlZKu8oqsL-342" value="" style="endArrow=none;html=1;rounded=0;exitX=1;exitY=0.5;exitDx=0;exitDy=0;" parent="1" source="88VnwZzMv4nlZKu8oqsL-336" edge="1">
          <mxGeometry width="50" height="50" relative="1" as="geometry">
            <mxPoint x="1280" y="700" as="sourcePoint" />
            <mxPoint x="1320" y="657.5" as="targetPoint" />
          </mxGeometry>
        </mxCell>
        <mxCell id="88VnwZzMv4nlZKu8oqsL-343" value="" style="endArrow=none;html=1;rounded=0;" parent="1" edge="1">
          <mxGeometry width="50" height="50" relative="1" as="geometry">
            <mxPoint x="1320" y="722.5" as="sourcePoint" />
            <mxPoint x="1320" y="657" as="targetPoint" />
          </mxGeometry>
        </mxCell>
        <mxCell id="88VnwZzMv4nlZKu8oqsL-344" value="&lt;font style=&quot;font-size: 8px;&quot;&gt;(1,1)&lt;/font&gt;" style="text;html=1;align=center;verticalAlign=middle;whiteSpace=wrap;rounded=1;strokeColor=none;glass=0;" parent="1" vertex="1">
          <mxGeometry x="1154.34" y="642.0200000000001" width="22.5" height="8.79" as="geometry" />
        </mxCell>
        <mxCell id="88VnwZzMv4nlZKu8oqsL-345" value="&lt;font style=&quot;font-size: 8px;&quot;&gt;(0,N)&lt;/font&gt;" style="text;html=1;align=center;verticalAlign=middle;whiteSpace=wrap;rounded=1;strokeColor=none;glass=0;" parent="1" vertex="1">
          <mxGeometry x="1267.9499999999998" y="642.0200000000001" width="22.5" height="8.79" as="geometry" />
        </mxCell>
        <mxCell id="88VnwZzMv4nlZKu8oqsL-347" value="" style="endArrow=none;html=1;rounded=0;entryX=0.5;entryY=1;entryDx=0;entryDy=0;" parent="1" edge="1">
          <mxGeometry width="50" height="50" relative="1" as="geometry">
            <mxPoint x="1569" y="899" as="sourcePoint" />
            <mxPoint x="1569.4700000000003" y="738.3599999999998" as="targetPoint" />
          </mxGeometry>
        </mxCell>
        <mxCell id="88VnwZzMv4nlZKu8oqsL-209" value="Accessori" style="whiteSpace=wrap;html=1;align=center;" parent="1" vertex="1">
          <mxGeometry x="1514.23" y="718.3599999999999" width="67.5" height="20" as="geometry" />
        </mxCell>
        <mxCell id="88VnwZzMv4nlZKu8oqsL-348" value="" style="endArrow=none;html=1;rounded=0;" parent="1" edge="1">
          <mxGeometry width="50" height="50" relative="1" as="geometry">
            <mxPoint x="1088.5" y="898.95" as="sourcePoint" />
            <mxPoint x="1569.5" y="899" as="targetPoint" />
          </mxGeometry>
        </mxCell>
        <mxCell id="88VnwZzMv4nlZKu8oqsL-222" value="Avatar" style="whiteSpace=wrap;html=1;align=center;" parent="1" vertex="1">
          <mxGeometry x="965.33" y="654.81" width="60" height="30" as="geometry" />
        </mxCell>
        <mxCell id="88VnwZzMv4nlZKu8oqsL-350" value="" style="endArrow=none;html=1;rounded=0;" parent="1" edge="1">
          <mxGeometry width="50" height="50" relative="1" as="geometry">
            <mxPoint x="1121" y="811" as="sourcePoint" />
            <mxPoint x="1121" y="674.3100000000001" as="targetPoint" />
          </mxGeometry>
        </mxCell>
        <mxCell id="88VnwZzMv4nlZKu8oqsL-351" value="&lt;font style=&quot;font-size: 8px;&quot;&gt;(0,N)&lt;/font&gt;" style="text;html=1;align=center;verticalAlign=middle;whiteSpace=wrap;rounded=1;strokeColor=none;glass=0;" parent="1" vertex="1">
          <mxGeometry x="1165.45" y="884.51" width="22.5" height="8.79" as="geometry" />
        </mxCell>
        <mxCell id="88VnwZzMv4nlZKu8oqsL-352" value="&lt;font style=&quot;font-size: 8px;&quot;&gt;(0,N)&lt;/font&gt;" style="text;html=1;align=center;verticalAlign=middle;whiteSpace=wrap;rounded=1;strokeColor=none;glass=0;" parent="1" vertex="1">
          <mxGeometry x="1267.95" y="884.51" width="22.5" height="8.79" as="geometry" />
        </mxCell>
        <mxCell id="ykwQJiSrQ9kxpY6L3tK0-1" style="edgeStyle=orthogonalEdgeStyle;rounded=0;orthogonalLoop=1;jettySize=auto;html=1;endArrow=oval;endFill=0;" parent="1" edge="1">
          <mxGeometry relative="1" as="geometry">
            <mxPoint x="1788.9199999999998" y="971.4100000000001" as="sourcePoint" />
            <mxPoint x="1806.8" y="971.5400000000002" as="targetPoint" />
            <Array as="points">
              <mxPoint x="1796.8" y="971.5400000000002" />
            </Array>
          </mxGeometry>
        </mxCell>
        <mxCell id="ykwQJiSrQ9kxpY6L3tK0-2" value="&lt;font style=&quot;font-size: 9px;&quot;&gt;Tema&lt;/font&gt;" style="text;html=1;align=center;verticalAlign=middle;whiteSpace=wrap;rounded=0;" parent="1" vertex="1">
          <mxGeometry x="1803" y="961.6800000000002" width="40" height="17.314202334630348" as="geometry" />
        </mxCell>
        <mxCell id="88VnwZzMv4nlZKu8oqsL-217" value="Abito" style="whiteSpace=wrap;html=1;align=center;" parent="1" vertex="1">
          <mxGeometry x="1392.1" y="718.3599999999999" width="57.5" height="20" as="geometry" />
        </mxCell>
        <mxCell id="ykwQJiSrQ9kxpY6L3tK0-3" value="&lt;font style=&quot;font-size: 8px;&quot;&gt;Ora&lt;/font&gt;" style="text;html=1;align=center;verticalAlign=middle;whiteSpace=wrap;rounded=1;strokeColor=none;glass=0;" parent="1" vertex="1">
          <mxGeometry x="1252.95" y="601.79" width="30" height="11.5" as="geometry" />
        </mxCell>
        <mxCell id="ykwQJiSrQ9kxpY6L3tK0-4" style="edgeStyle=orthogonalEdgeStyle;rounded=0;orthogonalLoop=1;jettySize=auto;html=1;exitX=1;exitY=1;exitDx=0;exitDy=0;endArrow=oval;endFill=0;" parent="1" edge="1">
          <mxGeometry relative="1" as="geometry">
            <mxPoint x="1233.7763799228908" y="608.8632645518719" as="sourcePoint" />
            <mxPoint x="1254.95" y="608.7199999999999" as="targetPoint" />
          </mxGeometry>
        </mxCell>
        <mxCell id="ykwQJiSrQ9kxpY6L3tK0-5" value="&lt;font style=&quot;font-size: 8px;&quot;&gt;Data&lt;/font&gt;" style="text;html=1;align=center;verticalAlign=middle;whiteSpace=wrap;rounded=1;strokeColor=none;glass=0;" parent="1" vertex="1">
          <mxGeometry x="1252.95" y="592.92" width="30" height="6.5" as="geometry" />
        </mxCell>
        <mxCell id="ykwQJiSrQ9kxpY6L3tK0-6" style="edgeStyle=orthogonalEdgeStyle;rounded=0;orthogonalLoop=1;jettySize=auto;html=1;exitX=1;exitY=0;exitDx=0;exitDy=0;entryX=0.086;entryY=0.404;entryDx=0;entryDy=0;entryPerimeter=0;endArrow=oval;endFill=0;" parent="1" source="ykwQJiSrQ9kxpY6L3tK0-7" target="ykwQJiSrQ9kxpY6L3tK0-5" edge="1">
          <mxGeometry relative="1" as="geometry" />
        </mxCell>
        <mxCell id="ykwQJiSrQ9kxpY6L3tK0-8" value="&lt;font style=&quot;font-size: 8px;&quot;&gt;Ora&lt;/font&gt;" style="text;html=1;align=center;verticalAlign=middle;whiteSpace=wrap;rounded=1;strokeColor=none;glass=0;" parent="1" vertex="1">
          <mxGeometry x="1290" y="754" width="30" height="11.5" as="geometry" />
        </mxCell>
        <mxCell id="ykwQJiSrQ9kxpY6L3tK0-9" style="edgeStyle=orthogonalEdgeStyle;rounded=0;orthogonalLoop=1;jettySize=auto;html=1;exitX=1;exitY=1;exitDx=0;exitDy=0;endArrow=oval;endFill=0;" parent="1" edge="1">
          <mxGeometry relative="1" as="geometry">
            <mxPoint x="1272.2263799228908" y="761.1532645518719" as="sourcePoint" />
            <mxPoint x="1293.4" y="761.0099999999999" as="targetPoint" />
          </mxGeometry>
        </mxCell>
        <mxCell id="ykwQJiSrQ9kxpY6L3tK0-11" style="edgeStyle=orthogonalEdgeStyle;rounded=0;orthogonalLoop=1;jettySize=auto;html=1;exitX=1;exitY=0;exitDx=0;exitDy=0;entryX=0.086;entryY=0.404;entryDx=0;entryDy=0;entryPerimeter=0;endArrow=oval;endFill=0;" parent="1" edge="1">
          <mxGeometry relative="1" as="geometry">
            <mxPoint x="1272.2263799228892" y="749.7767354481289" as="sourcePoint" />
            <mxPoint x="1293.58" y="749.1059999999999" as="targetPoint" />
          </mxGeometry>
        </mxCell>
        <mxCell id="ykwQJiSrQ9kxpY6L3tK0-12" value="&lt;p style=&quot;line-height: 110%;&quot;&gt;&lt;font style=&quot;font-size: 7px;&quot;&gt;DataFine&lt;/font&gt;&lt;/p&gt;" style="ellipse;whiteSpace=wrap;html=1;" parent="1" vertex="1">
          <mxGeometry x="1240.45" y="744.93" width="36.12" height="20" as="geometry" />
        </mxCell>
        <mxCell id="ykwQJiSrQ9kxpY6L3tK0-13" value="&lt;font style=&quot;font-size: 8px;&quot;&gt;Ora&lt;/font&gt;" style="text;html=1;align=center;verticalAlign=middle;whiteSpace=wrap;rounded=1;strokeColor=none;glass=0;" parent="1" vertex="1">
          <mxGeometry x="1128.51" y="780.68" width="30" height="11.5" as="geometry" />
        </mxCell>
        <mxCell id="ykwQJiSrQ9kxpY6L3tK0-14" style="edgeStyle=orthogonalEdgeStyle;rounded=0;orthogonalLoop=1;jettySize=auto;html=1;exitX=1;exitY=1;exitDx=0;exitDy=0;endArrow=oval;endFill=0;" parent="1" edge="1">
          <mxGeometry relative="1" as="geometry">
            <mxPoint x="1176.1799999999998" y="776.68" as="sourcePoint" />
            <mxPoint x="1155.0063799228906" y="776.823264551872" as="targetPoint" />
          </mxGeometry>
        </mxCell>
        <mxCell id="ykwQJiSrQ9kxpY6L3tK0-15" value="&lt;font style=&quot;font-size: 8px;&quot;&gt;Data&lt;/font&gt;" style="text;html=1;align=center;verticalAlign=middle;whiteSpace=wrap;rounded=1;strokeColor=none;glass=0;" parent="1" vertex="1">
          <mxGeometry x="1126.1" y="772.18" width="30" height="6.5" as="geometry" />
        </mxCell>
        <mxCell id="ykwQJiSrQ9kxpY6L3tK0-16" style="edgeStyle=orthogonalEdgeStyle;rounded=0;orthogonalLoop=1;jettySize=auto;html=1;exitX=1;exitY=0;exitDx=0;exitDy=0;entryX=0.086;entryY=0.404;entryDx=0;entryDy=0;entryPerimeter=0;endArrow=oval;endFill=0;" parent="1" edge="1">
          <mxGeometry relative="1" as="geometry">
            <mxPoint x="1176.84" y="787.3860000000001" as="sourcePoint" />
            <mxPoint x="1155.1445486936088" y="788.0890713054696" as="targetPoint" />
          </mxGeometry>
        </mxCell>
        <mxCell id="ykwQJiSrQ9kxpY6L3tK0-17" value="&lt;p style=&quot;line-height: 110%;&quot;&gt;&lt;font style=&quot;font-size: 7px;&quot;&gt;DataInizio&lt;/font&gt;&lt;/p&gt;" style="ellipse;whiteSpace=wrap;html=1;" parent="1" vertex="1">
          <mxGeometry x="1168.92" y="772.18" width="36.12" height="20" as="geometry" />
        </mxCell>
        <mxCell id="ykwQJiSrQ9kxpY6L3tK0-18" value="&lt;font style=&quot;font-size: 8px;&quot;&gt;Ora&lt;/font&gt;" style="text;html=1;align=center;verticalAlign=middle;whiteSpace=wrap;rounded=1;strokeColor=none;glass=0;" parent="1" vertex="1">
          <mxGeometry x="1295" y="868.5" width="30" height="11.5" as="geometry" />
        </mxCell>
        <mxCell id="ykwQJiSrQ9kxpY6L3tK0-19" style="edgeStyle=orthogonalEdgeStyle;rounded=0;orthogonalLoop=1;jettySize=auto;html=1;exitX=1;exitY=1;exitDx=0;exitDy=0;endArrow=oval;endFill=0;" parent="1" edge="1">
          <mxGeometry relative="1" as="geometry">
            <mxPoint x="1276.5663799228905" y="876" as="sourcePoint" />
            <mxPoint x="1298" y="876" as="targetPoint" />
          </mxGeometry>
        </mxCell>
        <mxCell id="ykwQJiSrQ9kxpY6L3tK0-20" value="&lt;font style=&quot;font-size: 8px;&quot;&gt;Data&lt;/font&gt;" style="text;html=1;align=center;verticalAlign=middle;whiteSpace=wrap;rounded=1;strokeColor=none;glass=0;" parent="1" vertex="1">
          <mxGeometry x="1296" y="858" width="30" height="6.5" as="geometry" />
        </mxCell>
        <mxCell id="ykwQJiSrQ9kxpY6L3tK0-24" value="&lt;font style=&quot;font-size: 8px;&quot;&gt;Ora&lt;/font&gt;" style="text;html=1;align=center;verticalAlign=middle;whiteSpace=wrap;rounded=1;strokeColor=none;glass=0;" parent="1" vertex="1">
          <mxGeometry x="1260.15" y="957.02" width="30" height="11.5" as="geometry" />
        </mxCell>
        <mxCell id="ykwQJiSrQ9kxpY6L3tK0-25" style="edgeStyle=orthogonalEdgeStyle;rounded=0;orthogonalLoop=1;jettySize=auto;html=1;exitX=1;exitY=1;exitDx=0;exitDy=0;endArrow=oval;endFill=0;" parent="1" edge="1">
          <mxGeometry relative="1" as="geometry">
            <mxPoint x="1240.9763799228908" y="964.0932645518719" as="sourcePoint" />
            <mxPoint x="1262.15" y="963.9499999999999" as="targetPoint" />
          </mxGeometry>
        </mxCell>
        <mxCell id="ykwQJiSrQ9kxpY6L3tK0-26" value="&lt;font style=&quot;font-size: 8px;&quot;&gt;Data&lt;/font&gt;" style="text;html=1;align=center;verticalAlign=middle;whiteSpace=wrap;rounded=1;strokeColor=none;glass=0;" parent="1" vertex="1">
          <mxGeometry x="1260.15" y="948.15" width="30" height="6.5" as="geometry" />
        </mxCell>
        <mxCell id="ykwQJiSrQ9kxpY6L3tK0-27" style="edgeStyle=orthogonalEdgeStyle;rounded=0;orthogonalLoop=1;jettySize=auto;html=1;exitX=1;exitY=0;exitDx=0;exitDy=0;entryX=0.086;entryY=0.404;entryDx=0;entryDy=0;entryPerimeter=0;endArrow=oval;endFill=0;" parent="1" target="ykwQJiSrQ9kxpY6L3tK0-26" edge="1">
          <mxGeometry relative="1" as="geometry">
            <mxPoint x="1240.45" y="951.34" as="sourcePoint" />
          </mxGeometry>
        </mxCell>
        <mxCell id="ykwQJiSrQ9kxpY6L3tK0-28" value="&lt;p style=&quot;line-height: 110%;&quot;&gt;&lt;font style=&quot;font-size: 7px;&quot;&gt;DataFine&lt;/font&gt;&lt;/p&gt;" style="ellipse;whiteSpace=wrap;html=1;" parent="1" vertex="1">
          <mxGeometry x="1209.2700000000002" y="948.3399999999999" width="36.12" height="20" as="geometry" />
        </mxCell>
        <mxCell id="ykwQJiSrQ9kxpY6L3tK0-29" value="&lt;font style=&quot;font-size: 8px;&quot;&gt;Ora&lt;/font&gt;" style="text;html=1;align=center;verticalAlign=middle;whiteSpace=wrap;rounded=1;strokeColor=none;glass=0;" parent="1" vertex="1">
          <mxGeometry x="955.33" y="764.9300000000001" width="30" height="11.5" as="geometry" />
        </mxCell>
        <mxCell id="ykwQJiSrQ9kxpY6L3tK0-30" style="edgeStyle=orthogonalEdgeStyle;rounded=0;orthogonalLoop=1;jettySize=auto;html=1;exitX=1;exitY=1;exitDx=0;exitDy=0;endArrow=oval;endFill=0;" parent="1" edge="1">
          <mxGeometry relative="1" as="geometry">
            <mxPoint x="936.1563799228908" y="772.003264551872" as="sourcePoint" />
            <mxPoint x="957.33" y="771.8600000000001" as="targetPoint" />
          </mxGeometry>
        </mxCell>
        <mxCell id="ykwQJiSrQ9kxpY6L3tK0-31" value="&lt;font style=&quot;font-size: 8px;&quot;&gt;Data&lt;/font&gt;" style="text;html=1;align=center;verticalAlign=middle;whiteSpace=wrap;rounded=1;strokeColor=none;glass=0;" parent="1" vertex="1">
          <mxGeometry x="957" y="754.86" width="30" height="6.5" as="geometry" />
        </mxCell>
        <mxCell id="ykwQJiSrQ9kxpY6L3tK0-32" style="edgeStyle=orthogonalEdgeStyle;rounded=0;orthogonalLoop=1;jettySize=auto;html=1;exitX=1;exitY=0;exitDx=0;exitDy=0;entryX=0.086;entryY=0.404;entryDx=0;entryDy=0;entryPerimeter=0;endArrow=oval;endFill=0;" parent="1" source="ykwQJiSrQ9kxpY6L3tK0-33" edge="1">
          <mxGeometry relative="1" as="geometry">
            <mxPoint x="957.9100000000001" y="758.6859999999999" as="targetPoint" />
          </mxGeometry>
        </mxCell>
        <mxCell id="ykwQJiSrQ9kxpY6L3tK0-33" value="&lt;p style=&quot;line-height: 110%;&quot;&gt;&lt;font style=&quot;font-size: 7px;&quot;&gt;Data&lt;/font&gt;&lt;/p&gt;" style="ellipse;whiteSpace=wrap;html=1;" parent="1" vertex="1">
          <mxGeometry x="905.33" y="756.4300000000001" width="36.12" height="20" as="geometry" />
        </mxCell>
        <mxCell id="ykwQJiSrQ9kxpY6L3tK0-34" value="" style="endArrow=none;html=1;rounded=0;entryX=0.551;entryY=1.003;entryDx=0;entryDy=0;entryPerimeter=0;" parent="1" edge="1">
          <mxGeometry width="50" height="50" relative="1" as="geometry">
            <mxPoint x="1219.71" y="635.4" as="sourcePoint" />
            <mxPoint x="1219.71" y="612.34" as="targetPoint" />
          </mxGeometry>
        </mxCell>
        <mxCell id="88VnwZzMv4nlZKu8oqsL-336" value="Vestizione&lt;div&gt;corrente&lt;/div&gt;" style="shape=rhombus;perimeter=rhombusPerimeter;whiteSpace=wrap;html=1;align=center;" parent="1" vertex="1">
          <mxGeometry x="1168.9199999999998" y="630.5" width="101.9" height="53" as="geometry" />
        </mxCell>
        <mxCell id="ykwQJiSrQ9kxpY6L3tK0-7" value="&lt;p style=&quot;line-height: 110%;&quot;&gt;&lt;font style=&quot;font-size: 7px;&quot;&gt;DataInizio&lt;/font&gt;&lt;/p&gt;" style="ellipse;whiteSpace=wrap;html=1;" parent="1" vertex="1">
          <mxGeometry x="1202.95" y="593.29" width="36.12" height="20" as="geometry" />
        </mxCell>
        <mxCell id="ykwQJiSrQ9kxpY6L3tK0-36" value="" style="endArrow=none;html=1;rounded=0;entryX=0.551;entryY=1.003;entryDx=0;entryDy=0;entryPerimeter=0;" parent="1" edge="1">
          <mxGeometry width="50" height="50" relative="1" as="geometry">
            <mxPoint x="923" y="800" as="sourcePoint" />
            <mxPoint x="923" y="776.6500000000001" as="targetPoint" />
          </mxGeometry>
        </mxCell>
        <mxCell id="ykwQJiSrQ9kxpY6L3tK0-37" value="&lt;font style=&quot;font-size: 8px;&quot;&gt;Ora&lt;/font&gt;" style="text;html=1;align=center;verticalAlign=middle;whiteSpace=wrap;rounded=1;strokeColor=none;glass=0;" parent="1" vertex="1">
          <mxGeometry x="1290.45" y="700.65" width="30" height="11.5" as="geometry" />
        </mxCell>
        <mxCell id="ykwQJiSrQ9kxpY6L3tK0-38" style="edgeStyle=orthogonalEdgeStyle;rounded=0;orthogonalLoop=1;jettySize=auto;html=1;exitX=1;exitY=1;exitDx=0;exitDy=0;endArrow=oval;endFill=0;" parent="1" edge="1">
          <mxGeometry relative="1" as="geometry">
            <mxPoint x="1271.2763799228908" y="707.7232645518719" as="sourcePoint" />
            <mxPoint x="1292.45" y="707.5799999999999" as="targetPoint" />
          </mxGeometry>
        </mxCell>
        <mxCell id="ykwQJiSrQ9kxpY6L3tK0-40" style="edgeStyle=orthogonalEdgeStyle;rounded=0;orthogonalLoop=1;jettySize=auto;html=1;exitX=1;exitY=0;exitDx=0;exitDy=0;entryX=0.086;entryY=0.404;entryDx=0;entryDy=0;entryPerimeter=0;endArrow=oval;endFill=0;" parent="1" source="ykwQJiSrQ9kxpY6L3tK0-41" edge="1">
          <mxGeometry relative="1" as="geometry">
            <mxPoint x="1293.0300000000002" y="694.776" as="targetPoint" />
          </mxGeometry>
        </mxCell>
        <mxCell id="ykwQJiSrQ9kxpY6L3tK0-41" value="&lt;p style=&quot;line-height: 110%;&quot;&gt;&lt;font style=&quot;font-size: 7px;&quot;&gt;DataInizio&lt;/font&gt;&lt;/p&gt;" style="ellipse;whiteSpace=wrap;html=1;" parent="1" vertex="1">
          <mxGeometry x="1240.45" y="692.15" width="36.12" height="20" as="geometry" />
        </mxCell>
        <mxCell id="ykwQJiSrQ9kxpY6L3tK0-42" value="" style="endArrow=none;html=1;rounded=0;entryX=0;entryY=0.5;entryDx=0;entryDy=0;" parent="1" target="ykwQJiSrQ9kxpY6L3tK0-41" edge="1">
          <mxGeometry width="50" height="50" relative="1" as="geometry">
            <mxPoint x="1219.9334862385322" y="701.86" as="sourcePoint" />
            <mxPoint x="1219.9334862385322" y="678.5100000000001" as="targetPoint" />
          </mxGeometry>
        </mxCell>
        <mxCell id="ykwQJiSrQ9kxpY6L3tK0-43" value="" style="endArrow=none;html=1;rounded=0;entryX=0;entryY=0.5;entryDx=0;entryDy=0;" parent="1" edge="1">
          <mxGeometry width="50" height="50" relative="1" as="geometry">
            <mxPoint x="1220" y="754.86" as="sourcePoint" />
            <mxPoint x="1240" y="755" as="targetPoint" />
          </mxGeometry>
        </mxCell>
        <mxCell id="ykwQJiSrQ9kxpY6L3tK0-44" value="" style="endArrow=none;html=1;rounded=0;entryX=0.551;entryY=1.003;entryDx=0;entryDy=0;entryPerimeter=0;" parent="1" edge="1">
          <mxGeometry width="50" height="50" relative="1" as="geometry">
            <mxPoint x="1227.1000000000001" y="948.1099999999999" as="sourcePoint" />
            <mxPoint x="1227.1000000000001" y="925.05" as="targetPoint" />
          </mxGeometry>
        </mxCell>
        <mxCell id="88VnwZzMv4nlZKu8oqsL-346" value="Utilizzo&lt;div&gt;passato&lt;/div&gt;" style="shape=rhombus;perimeter=rhombusPerimeter;whiteSpace=wrap;html=1;align=center;" parent="1" vertex="1">
          <mxGeometry x="1182.42" y="871.13" width="89.81" height="56" as="geometry" />
        </mxCell>
        <mxCell id="ykwQJiSrQ9kxpY6L3tK0-46" value="" style="endArrow=none;html=1;rounded=0;entryX=0;entryY=0.5;entryDx=0;entryDy=0;" parent="1" edge="1">
          <mxGeometry width="50" height="50" relative="1" as="geometry">
            <mxPoint x="1205.45" y="782.5" as="sourcePoint" />
            <mxPoint x="1225.45" y="782.64" as="targetPoint" />
          </mxGeometry>
        </mxCell>
        <mxCell id="ykwQJiSrQ9kxpY6L3tK0-47" value="&lt;font style=&quot;font-size: 8px;&quot;&gt;Data&lt;/font&gt;" style="text;html=1;align=center;verticalAlign=middle;whiteSpace=wrap;rounded=1;strokeColor=none;glass=0;" parent="1" vertex="1">
          <mxGeometry x="1292" y="746" width="30" height="6.5" as="geometry" />
        </mxCell>
        <mxCell id="ykwQJiSrQ9kxpY6L3tK0-49" value="" style="endArrow=none;html=1;rounded=0;entryX=0;entryY=0.5;entryDx=0;entryDy=0;" parent="1" edge="1">
          <mxGeometry width="50" height="50" relative="1" as="geometry">
            <mxPoint x="1227" y="871.13" as="sourcePoint" />
            <mxPoint x="1252.33" y="871.27" as="targetPoint" />
          </mxGeometry>
        </mxCell>
        <mxCell id="ykwQJiSrQ9kxpY6L3tK0-50" style="edgeStyle=orthogonalEdgeStyle;rounded=0;orthogonalLoop=1;jettySize=auto;html=1;exitX=1;exitY=0;exitDx=0;exitDy=0;entryX=0.086;entryY=0.404;entryDx=0;entryDy=0;entryPerimeter=0;endArrow=oval;endFill=0;" parent="1" edge="1">
          <mxGeometry relative="1" as="geometry">
            <mxPoint x="1276.5663799228892" y="862.5167354481289" as="sourcePoint" />
            <mxPoint x="1297.9199999999998" y="861.8459999999999" as="targetPoint" />
          </mxGeometry>
        </mxCell>
        <mxCell id="ykwQJiSrQ9kxpY6L3tK0-22" value="&lt;p style=&quot;line-height: 110%;&quot;&gt;&lt;font style=&quot;font-size: 7px;&quot;&gt;DataInizio&lt;/font&gt;&lt;/p&gt;" style="ellipse;whiteSpace=wrap;html=1;" parent="1" vertex="1">
          <mxGeometry x="1249.8899999999999" y="859.79" width="36.12" height="20" as="geometry" />
        </mxCell>
        <mxCell id="ykwQJiSrQ9kxpY6L3tK0-51" value="&lt;font style=&quot;font-size: 8px;&quot;&gt;Data&lt;/font&gt;" style="text;html=1;align=center;verticalAlign=middle;whiteSpace=wrap;rounded=1;strokeColor=none;glass=0;" parent="1" vertex="1">
          <mxGeometry x="1292" y="690" width="30" height="6.5" as="geometry" />
        </mxCell>
        <mxCell id="TRuZ-DbamQN383a2RHca-1" style="edgeStyle=orthogonalEdgeStyle;rounded=0;orthogonalLoop=1;jettySize=auto;html=1;exitX=0.25;exitY=0;exitDx=0;exitDy=0;entryX=0.842;entryY=1.009;entryDx=0;entryDy=0;entryPerimeter=0;endArrow=oval;endFill=0;" parent="1" edge="1">
          <mxGeometry relative="1" as="geometry">
            <mxPoint x="1442.05" y="951.4" as="sourcePoint" />
            <mxPoint x="1446.05" y="938.4" as="targetPoint" />
          </mxGeometry>
        </mxCell>
        <mxCell id="88VnwZzMv4nlZKu8oqsL-322" value="Interazione" style="shape=rhombus;perimeter=rhombusPerimeter;whiteSpace=wrap;html=1;align=center;" parent="1" vertex="1">
          <mxGeometry x="1401.77" y="948.34" width="88.23" height="41.66" as="geometry" />
        </mxCell>
        <mxCell id="TRuZ-DbamQN383a2RHca-3" value="&lt;font style=&quot;font-size: 9px;&quot;&gt;Descrizione&lt;/font&gt;" style="text;html=1;align=center;verticalAlign=middle;whiteSpace=wrap;rounded=0;" parent="1" vertex="1">
          <mxGeometry x="1425.9099999999999" y="919.411011673152" width="40" height="17.314202334630348" as="geometry" />
        </mxCell>
        <mxCell id="TRuZ-DbamQN383a2RHca-4" value="&lt;font style=&quot;font-size: 9px;&quot;&gt;Provenienza&lt;/font&gt;" style="text;html=1;align=center;verticalAlign=middle;whiteSpace=wrap;rounded=0;" parent="1" vertex="1">
          <mxGeometry x="1694.3" y="916.181011673152" width="40" height="17.314202334630348" as="geometry" />
        </mxCell>
      </root>
    </mxGraphModel>
  </diagram>
</mxfile>
